<svg xmlns="http://www.w3.org/2000/svg" viewBox="0 0 340 128"><path d="M61.6 33.4c0 19.5-10.2 29.2-30.7 29.2H5.6V4.2h25.3c20.4 0 30.7 9.7 30.7 29.2zM24.3 48.7h6.2c7.9 0 11.8-4.2 11.8-12.7v-5.1c0-8.4-3.9-12.7-11.8-12.7h-6.2v30.5zM65.7 4.2h50.6v14H84.5v8.1h27.2v13.4H84.5v8.9h32.4v14H65.7V4.2zm98.5 3.5c4.8 3 7.3 7.5 7.4 13.5v1H154v-.3c0-1.7-.6-3.1-1.9-4.2-1.2-1.1-3.1-1.7-5.7-1.7-2.5 0-4.4.4-5.7 1.1-1.3.7-2 1.6-2 2.7 0 1.5.9 2.7 2.7 3.4 1.8.7 4.7 1.5 8.8 2.3 4.7 1 8.6 2 11.6 3s5.7 2.8 7.9 5.1c2.3 2.4 3.4 5.6 3.5 9.7 0 6.9-2.3 12-7 15.4-4.7 3.3-10.9 5-18.7 5-9.1 0-16.2-1.5-21.3-4.6-5.1-3.1-7.6-8.5-7.6-16.2h17.8c0 2.9.8 4.9 2.3 5.9 1.5 1 3.9 1.5 7.1 1.5 2.4 0 4.3-.3 5.9-.8 1.6-.5 2.3-1.6 2.3-3.1 0-1.4-.9-2.5-2.6-3.2-1.7-.7-4.5-1.5-8.5-2.3-4.8-1-8.7-2.1-11.8-3.2-3.1-1.1-5.8-2.9-8.2-5.5-2.3-2.6-3.5-6-3.5-10.4 0-6.4 2.5-11.1 7.4-14.2 5-3 11.2-4.5 18.8-4.5 7.6.1 13.7 1.6 18.6 4.6zm13.2 55V4.2h18.8v58.5h-18.8zM200.7 46V32.6h21.7V46h-21.7zM50.1 67.7c4.5 1.7 8 4.2 10.7 7.5 2.6 3.3 4 7.4 4 12.1h-18c0-2.4-1.1-4.4-3.2-5.9-2.2-1.5-4.8-2.3-7.8-2.3-4.4 0-7.8 1.2-10 3.5-2.3 2.4-3.4 5.7-3.4 10V98c0 4.3 1.1 7.6 3.4 10 2.3 2.4 5.6 3.5 10 3.5 3.1 0 5.7-.7 7.8-2.2 2.2-1.4 3.2-3.3 3.2-5.6H33.5V92h31.2v32.6H55l-1.9-5.8c-5.3 4.5-12.3 6.8-20.9 6.8-9.7 0-17-2.5-21.8-7.6-4.9-5.1-7.3-12.6-7.3-22.7 0-9.9 2.8-17.4 8.3-22.6C16.9 67.6 24.8 65 35 65c5.6.2 10.6 1 15.1 2.7zm62.1 57L87.7 96.3v28.4H70.4V66.2h16.4L111.4 95V66.2h17.3v58.5h-16.5z" fill="#ee4a53"/></svg>