<svg xmlns="http://www.w3.org/2000/svg" viewBox="0 0 340 128"><path d="M60.3 32.9c0 19.5-10.2 29.2-30.7 29.2H4.3V3.7h25.3c20.5 0 30.7 9.7 30.7 29.2zM23.1 48.1h6.2c7.9 0 11.8-4.2 11.8-12.7v-5.1c0-8.4-3.9-12.7-11.8-12.7h-6.2v30.5zM64.5 3.7H115v14H83.2v8.1h27.2v13.4H83.2v8.9h32.4v14H64.5V3.7zm71.3 58.5L115 3.7h20.1l11.7 39.1h.3L159 3.7h19.2l-20.7 58.5h-21.7zm37.6-16.7V32.1h21.7v13.4h-21.7zM54.5 124.2v-21.1c0-2.6.1-5.3.3-8 .2-2.7.4-5.1.6-6.9.2-1.9.4-3.1.4-3.6h-.3l-10.8 39.6H30L19.2 84.6h-.3c.1.5.2 1.7.5 3.5s.5 4.1.7 6.9c.2 2.7.3 5.4.3 8v21.1H3.1V65.7h26.5l8.8 33.7h.3l8.8-33.7h25.6v58.5H54.5zM131 72.4c5.5 5.2 8.2 12.7 8.2 22.5 0 9.9-2.7 17.4-8.2 22.5-5.5 5.2-13.3 7.7-23.4 7.7-10.1 0-17.9-2.6-23.3-7.7-5.5-5.1-8.2-12.7-8.2-22.6 0-9.9 2.7-17.4 8.2-22.6 5.5-5.1 13.2-7.7 23.3-7.7 10.1.2 17.9 2.7 23.4 7.9zm-32.5 9.9c-2.1 2.4-3.1 5.7-3.1 9.9v5.4c0 4.1 1 7.4 3.1 9.9 2.1 2.4 5.2 3.7 9.2 3.7 4 0 7.1-1.2 9.2-3.7 2.1-2.4 3.2-5.7 3.2-9.9v-5.4c0-4.1-1.1-7.4-3.2-9.9-2.1-2.4-5.2-3.7-9.2-3.7-4.1.1-7.1 1.3-9.2 3.7zm92-14.8c2.5 1.2 4.4 2.9 5.9 5.1 1.4 2.2 2.2 4.7 2.2 7.4 0 7.2-3.3 11.7-9.8 13.6v.4c7.4 1.7 11.1 6.6 11.1 14.6 0 3.1-.8 5.8-2.3 8.1-1.5 2.4-3.6 4.2-6.2 5.5-2.6 1.3-5.5 2-8.6 2h-39.4V65.7h38.9c3 0 5.7.6 8.2 1.8zm-28.3 21h12.9c1.2 0 2.3-.4 3.1-1.3.8-.9 1.2-2 1.2-3.3V83c0-1.2-.4-2.3-1.3-3.2-.9-.9-1.9-1.3-3.1-1.3h-12.9v10zm0 22.1h14.3c1.2 0 2.3-.4 3.1-1.3.8-.9 1.2-2 1.2-3.3v-.8c0-1.3-.4-2.4-1.2-3.3-.8-.9-1.9-1.3-3.1-1.3h-14.3v10zm42.3 13.6V65.7h18.8v58.5h-18.8zm26.2-58.5h18.8v43.5h30v15h-48.8V65.7zm50.8 0H332v14h-31.8v8.1h27.2v13.4h-27.2v8.9h32.4v14h-51.2V65.7z" fill="#ee4a53"/></svg>