<svg id="ico-call" xmlns="http://www.w3.org/2000/svg" xmlns:xlink="http://www.w3.org/1999/xlink" width="65.991" height="61.517" viewBox="0 0 65.991 61.517">
  <defs>
    <linearGradient id="linear-gradient" y1="0.501" x2="1" y2="0.501" gradientUnits="objectBoundingBox">
      <stop offset="0" stop-color="#149744"/>
      <stop offset="1" stop-color="#5ea240"/>
    </linearGradient>
  </defs>
  <path id="Rectangle_205" data-name="Rectangle 205" d="M0,0H65.991V61.517H0Z" fill="url(#linear-gradient)"/>
  <path id="Tracé_329" data-name="Tracé 329" d="M46.38,17.456a7.21,7.21,0,0,0-7.188-7.189H24.815a7.21,7.21,0,0,0-7.189,7.189V46.21A7.21,7.21,0,0,0,24.815,53.4H39.192a7.21,7.21,0,0,0,7.189-7.189ZM33.8,49.8H30.206a1.8,1.8,0,0,1,0-3.594H33.8a1.8,1.8,0,0,1,0,3.594Zm8.986-8.986a1.7,1.7,0,0,1-1.8,1.8H23.017a1.7,1.7,0,0,1-1.8-1.8V19.253a1.7,1.7,0,0,1,1.8-1.8H40.989a1.7,1.7,0,0,1,1.8,1.8Z" fill="#fff"/>
</svg>
