<svg data-name="Groupe 110" xmlns="http://www.w3.org/2000/svg" viewBox="0 0 65.99 61.517"><path data-name="Rectangle 205" fill="#ee4a53" d="M0 0h65.991v61.517H0z"/><path d="M46.38 17.456a7.21 7.21 0 0 0-7.188-7.189H24.815a7.21 7.21 0 0 0-7.189 7.189V46.21a7.21 7.21 0 0 0 7.189 7.189h14.377a7.21 7.21 0 0 0 7.189-7.189zM33.8 49.804h-3.594a1.8 1.8 0 0 1 0-3.594H33.8a1.8 1.8 0 0 1 0 3.594zm8.986-8.986a1.7 1.7 0 0 1-1.8 1.8H23.017a1.7 1.7 0 0 1-1.8-1.8V19.253a1.7 1.7 0 0 1 1.8-1.8h17.972a1.7 1.7 0 0 1 1.8 1.8z" fill="#fff"/></svg>