<svg id="ico-gmail" xmlns="http://www.w3.org/2000/svg" xmlns:xlink="http://www.w3.org/1999/xlink" width="65.991" height="61.517" viewBox="0 0 65.991 61.517">
  <defs>
    <linearGradient id="linear-gradient" y1="0.501" x2="1" y2="0.501" gradientUnits="objectBoundingBox">
      <stop offset="0" stop-color="#149744"/>
      <stop offset="1" stop-color="#5ea240"/>
    </linearGradient>
  </defs>
  <path id="Rectangle_207" data-name="Rectangle 207" d="M0,0H65.991V61.517H0Z" fill="url(#linear-gradient)"/>
  <g id="Groupe_92" data-name="Groupe 92" transform="translate(3.146 8.894)">
    <path id="Tracé_27" data-name="Tracé 27" d="M158.849,185.891c-4.51.068-9.02.068-13.531.068-1.288,0-2.61-.068-3.867,0-.269,0-.677.3-.677.475-.034,2.612-.034,5.223-.034,7.936h11.02a5.542,5.542,0,0,1-.372,1.321c-1.663,5.02-6.852,7.5-12.447,6.581A12.123,12.123,0,0,1,129,187.825a12.863,12.863,0,0,1,.814-2.816,12.173,12.173,0,0,1,13.565-6.816,11.191,11.191,0,0,1,5.186,2.679l6.071-6.07a2.982,2.982,0,0,1-.507-.441,19.836,19.836,0,0,0-16.755-4.579,20.7,20.7,0,0,0,5.864,40.965,18.463,18.463,0,0,0,11.971-5.6c4.778-5.087,6.035-11.192,5.257-17.939-.138-1.118-.577-1.322-1.628-1.322Z" transform="translate(-120.096 -169.46)" fill="#fff" fill-rule="evenodd"/>
    <path id="Tracé_28" data-name="Tracé 28" d="M327.743,216.866h-6.512v-6.512h-4.78v6.512h-6.512v4.78h6.512v6.512h4.78v-6.512h6.512Z" transform="translate(-264.985 -197.522)" fill="#fff" fill-rule="evenodd"/>
  </g>
</svg>
