<svg id="ico-skype" xmlns="http://www.w3.org/2000/svg" xmlns:xlink="http://www.w3.org/1999/xlink" width="65.991" height="61.517" viewBox="0 0 65.991 61.517">
  <defs>
    <linearGradient id="linear-gradient" y1="0.501" x2="1" y2="0.501" gradientUnits="objectBoundingBox">
      <stop offset="0" stop-color="#149744"/>
      <stop offset="1" stop-color="#5ea240"/>
    </linearGradient>
  </defs>
  <path id="Rectangle_206" data-name="Rectangle 206" d="M0,0H65.991V61.517H0Z" fill="url(#linear-gradient)"/>
  <path id="Tracé_330" data-name="Tracé 330" d="M52.131,34.036A19.053,19.053,0,0,0,30.053,11.957,11.116,11.116,0,0,0,14.6,27.41a19.317,19.317,0,0,0-.286,3.312A19.064,19.064,0,0,0,36.684,49.489,11.115,11.115,0,0,0,52.131,34.036ZM41.552,38.5a7.119,7.119,0,0,1-3.193,2.427,12.854,12.854,0,0,1-4.981.877,12.01,12.01,0,0,1-5.7-1.2,7.361,7.361,0,0,1-2.589-2.3,4.955,4.955,0,0,1-1-2.8,1.8,1.8,0,0,1,.6-1.352,2.129,2.129,0,0,1,1.523-.561,1.875,1.875,0,0,1,1.266.44,3.427,3.427,0,0,1,.881,1.3,8.454,8.454,0,0,0,.964,1.714,3.768,3.768,0,0,0,1.456,1.132,5.743,5.743,0,0,0,2.466.45,5.939,5.939,0,0,0,3.416-.9,2.659,2.659,0,0,0,1.314-2.247,2.26,2.26,0,0,0-.708-1.731,4.63,4.63,0,0,0-1.834-1.021c-.747-.23-1.744-.478-3-.741a24.3,24.3,0,0,1-4.21-1.266,6.748,6.748,0,0,1-2.687-1.977,4.824,4.824,0,0,1-1-3.109,5.02,5.02,0,0,1,1.052-3.147,6.561,6.561,0,0,1,3.039-2.113,13.383,13.383,0,0,1,4.679-.738,12.464,12.464,0,0,1,3.718.488,8.085,8.085,0,0,1,2.6,1.3,5.714,5.714,0,0,1,1.51,1.706,3.671,3.671,0,0,1,.477,1.739,2.07,2.07,0,0,1-2.083,2.025,1.817,1.817,0,0,1-1.235-.374A5.041,5.041,0,0,1,37.38,25.3a5.68,5.68,0,0,0-1.531-1.9,4.8,4.8,0,0,0-2.865-.678,5.289,5.289,0,0,0-2.953.741,2.111,2.111,0,0,0-1.121,1.775,1.686,1.686,0,0,0,.382,1.112,3.149,3.149,0,0,0,1.05.806,7.869,7.869,0,0,0,1.354.531q.684.186,2.26.549,1.97.428,3.572.943a11.294,11.294,0,0,1,2.723,1.241A5.239,5.239,0,0,1,42,32.269a5.51,5.51,0,0,1,.629,2.743A5.972,5.972,0,0,1,41.552,38.5Z" fill="#fff"/>
</svg>
