<svg xmlns="http://www.w3.org/2000/svg" viewBox="0 0 319.7 162"><path d="M66.5 75.7V48.4c0-3.4.1-6.8.4-10.4.3-3.6.5-6.5.8-9 .3-2.4.5-4 .6-4.6h-.4l-14 51.3h-19L20.8 24.5h-.4c.1.7.3 2.2.6 4.6.3 2.4.6 5.4.9 8.9.3 3.6.4 7 .4 10.4v27.3H0V0h34.3l11.4 43.7h.4L57.5 0h33.1v75.7H66.5zM97.7 0h65.4v18.1H122v10.5h35.2V46H122v11.5h41.9v18.2H97.7V0zM213 19.4v56.3h-24.3V19.4h-24.9V0h73.9v19.4H213zm79.2 56.3V47h-26.7v28.7h-24.3V0h24.3v27.6h26.7V0h24.3v75.7h-24.3zm-145 18c7.1 6.7 10.7 16.4 10.7 29.2s-3.6 22.5-10.7 29.1c-7.1 6.7-17.2 10-30.2 10-13.1 0-23.1-3.3-30.2-10-7.1-6.6-10.6-16.4-10.6-29.2s3.5-22.6 10.6-29.2c7.1-6.6 17.1-10 30.2-10 13 .1 23.1 3.4 30.2 10.1zM105 106.6c-2.7 3.2-4.1 7.4-4.1 12.8v7c0 5.4 1.4 9.6 4.1 12.8 2.7 3.2 6.7 4.7 11.9 4.7s9.2-1.6 11.9-4.7c2.8-3.2 4.1-7.4 4.1-12.8v-7c0-5.4-1.4-9.6-4.1-12.8-2.8-3.2-6.7-4.7-11.9-4.7-5.2-.1-9.1 1.5-11.9 4.7zm130.7 16.2c0 25.2-13.2 37.8-39.7 37.8h-32.8V85H196c26.5 0 39.7 12.6 39.7 37.8zm-48.2 19.7h8c10.2 0 15.3-5.5 15.3-16.4v-6.6c0-10.9-5.1-16.4-15.3-16.4h-8v39.4zM309 93.7c7.1 6.7 10.7 16.4 10.7 29.2s-3.6 22.5-10.7 29.1c-7.1 6.7-17.2 10-30.2 10-13.1 0-23.1-3.3-30.2-10-7.1-6.6-10.6-16.4-10.6-29.2s3.5-22.6 10.6-29.2c7.1-6.6 17.1-10 30.2-10 13 .1 23.1 3.4 30.2 10.1zm-42.1 12.9c-2.7 3.2-4.1 7.4-4.1 12.8v7c0 5.4 1.4 9.6 4.1 12.8 2.7 3.2 6.7 4.7 11.9 4.7s9.2-1.6 11.9-4.7c2.8-3.2 4.1-7.4 4.1-12.8v-7c0-5.4-1.4-9.6-4.1-12.8-2.8-3.2-6.7-4.7-11.9-4.7-5.3-.1-9.2 1.5-11.9 4.7z" fill="#fff"/></svg>