<svg xmlns="http://www.w3.org/2000/svg" width="330.438" height="163.321" viewBox="0 0 330.438 163.321">
  <g id="noscrea" transform="translate(149.912 -305.945)">
    <path id="Tracé_310" data-name="Tracé 310" d="M-81.712,382.945v-27.28q0-5.06.385-10.4t.825-8.965q.438-3.63.55-4.62h-.44l-13.97,51.26h-19.03l-14.08-51.151h-.44q.108.991.605,4.566t.935,8.91q.438,5.337.44,10.4v27.28h-22.33v-75.68h34.32l11.44,43.67h.439l11.331-43.67h33.11v75.68Z" fill="#040405"/>
    <path id="Tracé_311" data-name="Tracé 311" d="M-50.584,307.265h65.45v18.15h-41.14v10.45h35.2v17.38h-35.2v11.549h41.91v18.151h-66.22Z" fill="#040405"/>
    <path id="Tracé_312" data-name="Tracé 312" d="M76.794,311.83q9.348,5.885,9.57,17.435v1.319H63.594v-.439a7.131,7.131,0,0,0-2.42-5.5q-2.421-2.2-7.37-2.2a15.594,15.594,0,0,0-7.425,1.43q-2.586,1.431-2.585,3.52,0,2.97,3.52,4.4a67.524,67.524,0,0,0,11.33,2.971,122.589,122.589,0,0,1,15.015,3.9,25.609,25.609,0,0,1,10.285,6.656q4.4,4.62,4.51,12.54,0,13.422-9.075,19.91t-24.255,6.49q-17.712,0-27.555-5.94t-9.845-21.01h22.99q0,5.719,2.97,7.644t9.24,1.926a24.974,24.974,0,0,0,7.645-.99,3.959,3.959,0,0,0,3.025-4.07q0-2.748-3.355-4.125a67.008,67.008,0,0,0-10.945-2.915A125.906,125.906,0,0,1,34,350.66a25.778,25.778,0,0,1-10.56-7.1q-4.51-4.95-4.51-13.42,0-12.429,9.625-18.315t24.365-5.885Q67.444,305.945,76.794,311.83Z" fill="#040405"/>
    <path id="Tracé_313" data-name="Tracé 313" d="M-84.022,399.36q9.789,8.415,9.79,24.036h-23.21q0-6.6-3.465-10.451t-9.845-3.85q-7.371,0-10.835,4.619t-3.465,12.871v7.04q0,8.142,3.465,12.815t10.615,4.675q7.038,0,10.67-3.63t3.63-10.23h22.44q0,15.512-9.515,23.761t-26.895,8.25q-19.362,0-29.316-9.9t-9.954-29.26q0-19.359,9.954-29.26t29.316-9.9Q-93.812,390.945-84.022,399.36Z" fill="#040405"/>
    <path id="Tracé_314" data-name="Tracé 314" d="M-.752,428.016a21.629,21.629,0,0,1-10.891,8.25L5.188,467.945h-27.28l-13.42-27.61h-9.02v27.61h-24.31v-75.68h46.31A28.791,28.791,0,0,1-8.617,395.4a21.066,21.066,0,0,1,8.69,8.47,23.826,23.826,0,0,1,2.915,11.605A22.124,22.124,0,0,1-.752,428.016Zm-22.99-16.5a6.587,6.587,0,0,0-4.841-1.98H-44.532v13.97h15.949a6.493,6.493,0,0,0,4.841-2.035,6.9,6.9,0,0,0,1.98-5.006A6.714,6.714,0,0,0-23.742,411.515Z" fill="#040405"/>
    <path id="Tracé_315" data-name="Tracé 315" d="M9.038,392.265H74.487v18.15H33.348v10.45h35.2v17.38h-35.2V449.8H75.257v18.15H9.038Z" fill="#040405"/>
    <path id="Tracé_316" data-name="Tracé 316" d="M131.466,467.945l-3.19-10.67h-26.51l-3.19,10.67H73.716l27.61-75.68H129.6l27.61,75.68Zm-24.64-27.61h16.39l-7.92-26.95h-.44Z" fill="#040405"/>
    <path id="Tracé_317" data-name="Tracé 317" d="M157.206,467.945V446.056h23.32v21.889Z" fill="#040405"/>
  </g>
</svg>
