<svg xmlns="http://www.w3.org/2000/svg" width="737.015" height="170.077" viewBox="0 0 737.015 170.077">
  <g id="nous-contactez" transform="translate(930.757 -487.547)" style="isolation: isolate">
    <g id="Groupe_2089" data-name="Groupe 2089" transform="translate(-652.961 487.547)" style="isolation: isolate">
      <path id="Tracé_318" data-name="Tracé 318" d="M-596.286,567V538.359q0-5.31.405-10.912t.865-9.412q.461-3.811.578-4.85h-.462L-609.566,567h-19.979l-14.782-53.7h-.462q.113,1.039.635,4.794t.982,9.354q.46,5.6.462,10.912V567h-23.443V487.547h36.031l12.009,45.847h.462l11.895-45.847h34.762V567Z" transform="translate(666.153 -487.547)" fill="#fff"/>
      <path id="Tracé_319" data-name="Tracé 319" d="M-561.875,487.547h68.713V506.6h-43.191v10.971H-499.4v18.247h-36.955v12.126h44V567h-69.521Z" transform="translate(671.352 -487.547)" fill="#fff"/>
    </g>
    <g id="Groupe_2090" data-name="Groupe 2090" transform="translate(-930.757 575.399)" style="isolation: isolate">
      <path id="Tracé_320" data-name="Tracé 320" d="M-861.582,580.062Q-851.3,588.9-851.3,605.295h-24.367q0-6.931-3.638-10.971t-10.336-4.042q-7.738,0-11.375,4.849t-3.638,13.512v7.391q0,8.548,3.638,13.455t11.144,4.907q7.389,0,11.2-3.81t3.811-10.741H-851.3q0,16.285-9.989,24.946t-28.236,8.661q-20.327,0-30.777-10.395t-10.451-30.718q0-20.326,10.451-30.719t30.777-10.394Q-871.86,571.227-861.582,580.062Z" transform="translate(930.757 -571.227)" fill="#fff"/>
      <path id="Tracé_321" data-name="Tracé 321" d="M-776.074,581.735q11.2,10.51,11.2,30.6t-11.2,30.6q-11.2,10.512-31.758,10.51T-839.533,643q-11.146-10.452-11.144-30.661t11.144-30.661q11.143-10.45,31.7-10.451T-776.074,581.735Zm-44.23,13.512q-4.274,4.968-4.273,13.4v7.391q0,8.433,4.273,13.4t12.472,4.965q8.2,0,12.53-4.965t4.331-13.4v-7.391q0-8.427-4.331-13.4t-12.53-4.965Q-816.034,590.282-820.3,595.247Z" transform="translate(934.749 -571.227)" fill="#fff"/>
      <path id="Tracé_322" data-name="Tracé 322" d="M-704.54,652l-33.375-38.573V652h-23.443V572.547h22.288l33.375,39.149V572.547h23.443V652Z" transform="translate(939.203 -571.161)" fill="#fff"/>
      <path id="Tracé_323" data-name="Tracé 323" d="M-629.217,592.871V652H-654.74V592.871h-26.1V572.547h77.606v20.324Z" transform="translate(943.217 -571.161)" fill="#fff"/>
      <path id="Tracé_324" data-name="Tracé 324" d="M-555.2,652l-3.349-11.2h-27.832l-3.349,11.2h-26.1l28.987-79.453h29.679L-528.177,652Zm-25.868-28.988h17.207l-8.315-28.293h-.461Z" transform="translate(946.458 -571.161)" fill="#fff"/>
      <path id="Tracé_325" data-name="Tracé 325" d="M-464.7,580.062q10.279,8.835,10.278,25.233h-24.367q0-6.931-3.638-10.971t-10.336-4.042q-7.737,0-11.375,4.849t-3.638,13.512v7.391q0,8.548,3.638,13.455T-493,634.4q7.387,0,11.2-3.81t3.811-10.741h23.559q0,16.285-9.988,24.946t-28.236,8.661q-20.329,0-30.778-10.395t-10.45-30.718q0-20.326,10.45-30.719t30.778-10.394Q-474.983,571.227-464.7,580.062Z" transform="translate(950.544 -571.227)" fill="#fff"/>
      <path id="Tracé_326" data-name="Tracé 326" d="M-404.6,592.871V652h-25.522V592.871h-26.1V572.547h77.606v20.324Z" transform="translate(954.416 -571.161)" fill="#fff"/>
      <path id="Tracé_327" data-name="Tracé 327" d="M-376.69,572.547h68.713V591.6h-43.191v10.971h36.955v18.247h-36.955v12.126h44V652H-376.69Z" transform="translate(958.381 -571.161)" fill="#fff"/>
      <path id="Tracé_328" data-name="Tracé 328" d="M-231.287,610.079a22.709,22.709,0,0,1-11.433,8.661L-225.051,652h-28.64l-14.089-28.988h-9.47V652h-25.522V572.547h48.619a30.225,30.225,0,0,1,14.609,3.291,22.108,22.108,0,0,1,9.123,8.891,25.021,25.021,0,0,1,3.06,12.185A23.213,23.213,0,0,1-231.287,610.079Zm-24.136-17.323a6.914,6.914,0,0,0-5.081-2.08H-277.25v14.667H-260.5a6.817,6.817,0,0,0,5.081-2.135,7.249,7.249,0,0,0,2.079-5.256A7.053,7.053,0,0,0-255.423,592.757Z" transform="translate(962.066 -571.161)" fill="#fff"/>
    </g>
  </g>
</svg>
