<svg id="Calque_1" xmlns="http://www.w3.org/2000/svg" viewBox="0 0 865 121.1"><style>.st0{fill:#fefefe}.st1{fill:#fdfdfd}.st3{fill:#fafafa}.st4{fill:#f9f9f9}.st5{fill:#f7f7f7}.st6{fill:#ededed}.st7{fill:#e9e9e9}.st8{fill:#f0f0f0}.st9{fill:#fbfbfb}.st10{fill:#e8e8e8}.st11{fill:#f8f8f8}.st14{fill:#e1e1e1}.st15{fill:#e0e0e0}.st16{fill:#e4e4e4}.st18{fill:#f3f3f3}.st19{fill:#e5e5e5}.st20{fill:#f5f5f5}.st21{fill:#f6f6f6}.st23{fill:#e7e7e7}.st24{fill:#f4f4f4}.st25{fill:#ebebeb}.st26{fill:#f2f2f2}.st27{fill:#eee}.st28{fill:#f1f1f1}</style><path class="st0" d="M772.2.2c1.7 0 3.1-.6 3.1 2.5-.2 31.3-.1 62.7-.1 94 0 2.1-.4 2.9-2.6 2.5-.6-.1-1.3 0-2 0-241.7 0-483.3 0-725 .1-3.7 0-4.6-.8-4.6-4.6.2-31.5.1-63 .1-94.5h63c1.1 1.2 1.3 2.6 1.4 4.2 1 10 5.7 18.1 12 25.7 9.7 11.7 22.8 16.8 36.9 20.5 13.7 3.6 27.6 6.1 41.6 7.6 8.7 1 17.6 1.8 26.2 2.9 11 1.5 22.3.1 33.1 3.2 1.8.5 3.6.4 5.5.4 18.5-.4 36.9 1.3 55.2 2.6 18.7 1.3 37.2.2 55.8 1.5 32.1 2.3 64.2 3.1 96.2 1.5 26.6-1.3 53.2-.3 79.7-2.1 13.3-.9 26.7-.1 39.8-1.9 10.5-1.4 21-.7 31.3-1.9 14.7-1.8 29.5-2.1 44-4.1 11.5-1.5 23-3.3 34.4-5 10.2-1.6 20.2-4.2 30.2-6.8 18.6-4.8 32.5-15.4 39.8-33.8 2.1-4.8 3-9.8 5-14.5z"/><path class="st1" d="M772.2.2c.9 9.7-4.3 17.3-8.7 25-5.9 10.3-14.9 16.7-26 21.4-10.2 4.3-21.1 5.3-31.3 9.2-3.9 1.5-8.5 1.4-12.5 1.8-6.7.6-13.5 1.6-19.9 2.9-9.2 1.9-18.8-.1-27.7 3.4-1.3.5-3 .3-4.5.2-15.1-.5-30.1 1.6-45 2.7-10.9.8-21.8.1-32.6 1.4-26.1 3.3-52.5-.1-78.5 2.3-28.3 2.7-56.5 2.4-84.5 1-25.6-1.3-51.2.7-76.5-1.9-12.8-1.3-25.6.4-38-1.9-10.3-1.9-20.6 0-30.5-2-8.1-1.7-16.3-.2-24-2-6.9-1.6-13.8-.7-20.6-1.9-10-1.8-20.2-2.1-30-4.1-17.8-3.6-36.2-5.7-52.2-15.5-6.8-4.1-12-10-16.7-16.1-2.1-2.8-3.7-6.3-5.3-9.7C104.7 11 104 5.8 104.1.1h10c1.5 1.3 1.8 3 2.3 4.8 3.4 12.6 10.6 22.4 21.8 29.3 4.4 2.7 9.4 4.3 13.6 7.4 12.6 5.5 26.1 7.5 39.5 9.2 5.2.6 10.5 1.4 15.7 2.3 9.5 1.7 19.2.7 28.6 3.2.6.2 1.3.4 1.9.4 13-1 25.7 3.1 38.7 2.1 4-.3 8 .2 11.9.8 28.4-.9 56.7 3.3 85.2 2.2 13.5-.5 27-.1 40.5-.1 2.5 0 5-.1 7.4 1 2 1.2 4.1 1.1 6.3 1.1 8.4-.3 16.9.8 25.3-.6.6-.2 1.2-.4 1.8-.4 2.9-1.1 5.9-.9 8.9-.9h78.8c2.2 0 4.3.2 6.4-.3.6-.3 1.1-.4 1.7-.6 4-1.5 8.2-.9 12.3-1 8.1-.3 16.2.5 24.3-.5.5-.2 1.1-.4 1.7-.5 5.1-1.8 10.4-.7 15.6-1 4.4-.2 8.9.5 13.2-.5l4.2-1.2c6.6-.9 13.2.4 19.8-.8 1.4-.4 2.7-.7 4.1-1.1 5.3-.9 10.7.3 15.9-.9 1.3-.4 2.7-.7 4-1.1 4-.9 8.1.2 12.1-.9 1.3-.4 2.6-.7 3.8-1.1 3.3-.8 6.8.1 10.1-.9 1.2-.3 2.4-.7 3.7-1 2.6-.8 5.4.1 8-1 .6-.3 1.3-.6 2-.9 2-.7 4.3-.2 6.2-1.2.6-.3 1.3-.6 1.9-.9 2-.7 4.2-.1 6.1-1.3 3.5-2.3 7.5-3.3 11.2-5.1 9.2-4.4 17.2-10.5 22.3-19.6 1.1-1.9 2.3-3.6 3.9-5.1 1.4-1.5.8-3.5 1.1-5.2.1-1 .5-1.8 1-2.7 1.1-1.6.5-3.8 2.1-5.2 3.9-.1 7.6-.1 11.2-.1z"/><path d="M753.2.2h5c2.2 4.6-.1 9.1-1.9 12.7-5.5 10.9-13.6 19.7-25 24.7-10.8 4.8-22.1 7.8-33.7 10.2-12.2 2.5-24.7 2.6-36.8 5.5 0 0-.2.1-.5.1-10.7-.9-21.1 1.8-31.7 2.5-12.4.8-25 .6-37.2 2.2-9.2 1.2-18.2.7-27.3 1.6-35 3.3-70.1.7-105.1 2.3-10.4.5-20.9 2.5-31.2 1.4-31.6-3.5-63.2.2-94.7-2.1-13.9-1-28-.1-41.7-2-10-1.4-20.1-.1-29.7-2.1-10.7-2.2-21.5-.7-32.1-3.1-7.3-1.7-15.1-1.4-22.7-2.3-11.8-1.4-23.6-3.1-35.3-5.4-9.7-1.9-18.8-5.1-27.7-9.3-12.5-5.8-20.8-15.2-25.9-27.7-1.2-2.9-1.9-6-.7-9.1h5c1.4 1.3 1.2 3.4 2.2 4.9 3.1 11.9 11.5 19.4 21.6 25.4 9.4 5.6 19.5 8.7 30.1 10.6 8.4 1.5 17 2.4 25.3 4.2 6.9 1.6 14 0 20.6 2.8 5.3 1.3 10.7.3 16 .6 2.7 0 5.3 0 7.7 1.3 6.6 1.6 13.4.3 20.1.7 2.1 0 4.2.3 6.1 1.3 9.3 1.4 18.6.3 27.9.6 2.8 0 5.6 0 8.1 1.3 4.9 1.4 9.8.5 14.7.6 7.7.1 15.5 0 23.2 0 4.1.2 8.2-.6 12.1 1.3 2.1.9 4.3.6 6.4.6h144.7c2.1 0 4.3.2 6.4-.6 4.8-2 9.9-1.2 14.9-1.4h31.7c1.8 0 3.6.2 5.4-.5 3.1-1.3 6.5-1.6 9.8-1.4 17 1.3 33.7-2.2 50.7-2.5 7.1-.1 14.8-.1 21.6-1.9 8-2.1 16.1-1.1 24.1-2.9 5.9-1.4 12.4-1.8 18.6-2.8 14.2-2.4 28.1-5.7 40.5-14 6.3-4.2 11.2-9.3 15.1-15.5 1.5-2.4 3-4.8 3.1-7.7-.1-1.9.5-3.8 2.2-5.1z" fill="#fcfcfc"/><path class="st1" d="M117.2.2c1.5 11.6 7.2 20.8 15.9 28.4 7.8 6.8 17.2 10.6 26.9 13.5 10.7 3.1 21.7 5.1 32.9 6.4 12.1 1.4 24.2 2.8 36.4 4.2 7.6.9 15.4.2 22.7 1.8 10.3 2.2 20.7.1 30.7 2.1 12.8 2.5 25.6.2 38.2 1.8 31.5 3.9 63.1.3 94.6 2.2 8.9.5 17.8 2.4 26.7 1.5 34.2-3.5 68.5-.2 102.6-2.3 12.9-.8 26 .1 38.6-1.9 10.5-1.7 20.9-.5 31.2-1.8 15.3-1.9 30.7-2.2 45.9-4.2 13.4-1.7 26.9-2.8 40.1-5.8 15.5-3.6 31.2-7.2 43.3-18.4 5.8-5.3 10.9-11.5 12.4-19.8.4-2.6 2.5-4.8 1.9-7.6h2c.8 2 .8 4 0 6-.8.4-1 1.2-1 2-1.3 1.8.2 4.2-1 6-3.6 1.8-4.5 5.7-6.5 8.5-6.2 8.6-14.1 14.4-24.1 17.6-2.6.8-4.9 2.5-7.4 3.8-2.2 1.3-4.8-.4-7 1l-1 1c-2.2 1.3-4.8-.4-7 1l-1 1c-2.9 1.3-6.1-.4-9 1-.7 1.2-1.9 1-3 1-3.6 1.3-7.4-.4-11 1-.7 1.2-1.9 1-3 1-4.3 1.4-8.8-.5-13 1-.7 1.2-1.9 1-3 1-5.6 1.4-11.4-.4-17 1-.7 1.2-1.9 1-3 1-5 1-10.1.2-15.2.5-1.9.1-3.9-.5-5.8.5-.7 1.2-1.9 1-3 1-7.9 1.1-15.9.2-23.9.5-2.2.1-4.3 0-6.1 1.5-10.6 1.1-21.3.2-31.9.5-2.2 0-4.3 0-6.1 1.5-1.7.9-3.6.5-5.4.5h-84c-2.3 0-4.7-.2-6.6 1.5h-1c-10.7.8-21.3.8-32 0-2-1.2-4.1-1-6.3-1-22.6 0-45.2.1-67.8 0-20-.1-39.9-3.2-59.9-2-1.9-1.5-4.1-2.1-6.5-2-2.3.1-4.7-.1-7 0-12.6.9-25-1.9-37.6-2.5-11.9-.6-23.9-2-35.8-3.7-12.4-1.7-24.8-3.7-37-6.5-4.4-1-8.7-2.9-13.1-4.3-1.7-1.9-4.2-2.7-6.4-3.7-13.7-5.7-22.3-16.3-27.7-29.7-1.1-2.7-1.3-5.8-1.9-8.6h3z"/><path class="st3" d="M743.2.2h3c1.5 1.8.9 3.7.2 5.6-3.4 10.4-10.8 17.6-19.7 23-11.2 6.8-23.8 9.8-36.8 12-14.6 2.4-29.3 4.1-43.9 5.4-10.2 1-20.5 1.7-30.8 2.5-13.9 1-27.8 1.9-41.7 2.5-12.4.6-24.9 1.8-37.4 1.4-2.5-.1-5-.1-7.4.9-2.9.9-5.8 1.2-8.9 1.2h-47.9c-2.3 0-4.7-.1-6.9.7-17.7.5-35.4.4-53.1.1-2.4-.8-4.9-.8-7.4-.8-14.3 0-28.7.5-42.9-.1-20-.9-40.1-1.2-60.1-2.6-7.8-.6-15.6-.8-23.4-1.3-14.5-1-29.1-1.7-43.6-3.4-7.9-.9-15.8-1.4-23.7-2.4-20.8-2.4-41.5-5.4-60.6-14.7-10-4.9-17.7-12.3-21.5-23.1-.8-2.2-1.9-4.4-.4-6.7h4c1.7 1.6.7 4.2 2.1 6l.6 1.2c.5 1.5 1.2 2.8 2.1 4 4.2 5.9 9.9 10 15.9 13.9 1.2.9 2.3 1.7 3.7 2.2.4.1.7.3 1.1.5 1 .7 2.1 1.2 3.2 1.6.4.2.8.3 1.1.6 1.3.9 2.8 1 4.3 1.3.4.1.8.3 1.3.4 1.7 1.2 3.7 1.3 5.6 1.4.7.1 1.3.2 2 .5 1.4.8 2.8 1.5 4.5 1.4 1.2 0 2.4.1 3.6.6 1.9 1.3 4.1 1.5 6.4 1.3 1.8 0 3.7-.1 5.5.6 2.6 1.7 5.5 1.5 8.4 1.4 2.5.1 5-.2 7.4.5 2.7 1.8 5.7 1.5 8.7 1.5 3.7.2 7.4-.4 11.1.5 2.8 1.8 5.9 1.6 9 1.5 5 .2 10.1-.5 15.1.5 4 2.4 8.5 1.3 12.8 1.5 5.7.2 11.5-.5 17.2.5 4.7 2.7 9.8 1.2 14.8 1.5 7.8.3 15.5-.5 23.3.5 4.6 2.6 9.6 1.2 14.4 1.5 2.1.1 4.2 0 6.4 0h55.8c2.5 0 5-.2 7.4.5 2.2 1.3 4.6 1.6 7.2 1.6h48c2.5 0 5-.2 7.2-1.6 5.6-.9 11.3-.4 16.9-.4 15.4-.1 30.9 0 46.3 0 6.3-.5 12.7 1.4 18.8-1.5 7.7-1 15.5-.2 23.2-.5 5.4-.4 11 1.2 16.2-1.3.5-.2.9-.4 1.4-.4 10.6 0 21.2-1.4 31.7-2.1 13.4-.9 26.7-2.2 40-3.7 12.2-1.4 24.3-3.2 36.2-6.1 18-4.4 33.3-12.4 41.1-30.5.6-1.7 1.3-2.4 1.9-3.1z"/><path class="st4" d="M195.2 38.2h-6c-1.9-1-4.4-.2-6-2h-4c-1.3-.8-2.9-.9-4-2h-2c-1.9-1-4.4-.2-6-2h-1c-1.6-.7-3.6-.6-5-2-1.3-.8-2.9-.9-4-2-1.3-.8-2.9-.9-4-2-6.9-3.6-13.2-7.8-17-15-1.1-1.1-1.2-2.7-2-4-1.6-2.2-2.1-4.5-1-7h3c3.9 9.6 10.7 16.6 19.3 22.1 8.8 5.6 18.9 7.9 28.8 10.6 6.3 1.7 12.8 1.6 19.1 3 .5.2.9.6 1.4.6 8.5-.5 16.8 1.7 25.1 2.6 11.4 1.2 22.9.6 34.1 2.3 8.2 1.2 16.3.4 24.2 1.6 16 2.5 32.3.2 48.2 2.3 16 2.1 31.9 1.3 47.8 1.4 46.6.3 93.3.8 139.9-.3 16-.4 32.3-.2 48.2-2.1 10.8-1.2 21.8.2 32.2-1.9 11.5-2.4 23.3.3 34.6-3.3.6-.2 1.3-.2 2-.2 17.5.1 34.6-3.1 51.7-6.3 13.9-2.6 26.9-7.7 37.2-17.8 4.3-4.2 6.4-10 10.2-14.6h3c-2.9 11.9-10.7 20-20.9 25.9-14.1 8.2-29.8 10.7-45.6 13-11.8 1.7-23.6 3.1-35.4 3.9-16.7 1.2-33.3 3.6-50.1 3.1-2.6 2.2-5.7 1.3-8.6 1.5-2.5.2-5-.6-7.4.5h-24c-2.6 2.2-5.7 1.3-8.6 1.5-3.1.2-6.3-.6-9.4.5h-64c-1.7 1.3-3.6 1.5-5.6 1.5h-50.8c-2.1 0-4-.2-5.6-1.5h-64c-4.6-1.1-9.2-.3-13.9-.5-2.2-.1-4.3 0-6.1-1.5h-24c-2.8-1.1-5.7-.4-8.6-.5-2 0-3.8-.2-5.4-1.5h-18c-3.8-1.6-8.4 1-12-2h-16c-2.5-1.2-5.8.4-8-2h-12c-2.5-1.2-5.8.4-8-2h-8c-2.5-1.2-5.7.5-8-1.9z"/><path class="st5" d="M732.2.2h3c1.5 7.3-3.9 11.3-8 15.7-6.9 7.4-15.8 11-25.3 14.1-10.7 3.4-21.6 5.4-32.6 6.7-8.7 1-17.5 1.8-26.2 2.9-13.8 1.7-27.9.4-41.6 3.5-1.8.4-3.7.1-5.5.2-24.3.2-48.5 1.9-72.7 2.9-14.4.6-28.9 1-43.3 1-38.1.2-76.3.7-114.4-.2-18.9-.5-37.9-.9-56.8-2.1-11.4-.7-23.1.1-34.2-2-12-2.3-24.3.5-36.1-3.3-.8-.3-1.7-.3-2.5-.2-9.7 1.3-19.2-1.4-28.6-2.4-14.7-1.6-29.5-4.1-43.3-10-9.5-4-18-9.5-22.8-19.1-1.2-2.3-2.8-4.7-1.2-7.5h2c1.6 1.2 2.8 2.8 3.7 4.6 5.7 10.9 15.1 16.7 26.5 20 9.7 2.7 19.3 5.2 29.4 6.4 12.2 1.5 24.6 2.5 36.7 4.1 10.4 1.4 20.8.7 31.1 1.9.6.1 1.1.4 1.6.6 2 1.3 4.2 1 6.3 1 9.1.2 18.3-.3 27.5.2.6.1 1.2.3 1.8.5 2.1 1.4 4.4 1.2 6.7 1.2 14.1.1 28.2-.1 42.2.1.9.1 1.8.2 2.7.6 1.5.8 3 1.4 4.7 1.4 8.3-.1 16.7.3 25-.3 2.9-1 5.9-.7 8.9-.7 36.3 0 72.6.9 108.8-.4 20.1-.7 40.1-1.2 60.2-1.8 5.1-.2 10-2.3 15.2-1.8 1.8.2 3.7 0 5.4.6 6.1.5 12.1 1.2 18.2-1 4.1-1.4 8.6-.3 12.9-.6 12.7-.9 25.4-1.3 37.9-3.7 1-.2 2-.2 3-.2 15.8-.8 31.2-3.6 46.1-8.5 11.1-3.7 20-11.1 25.6-21.7.8-1.2 1.4-2 2-2.7z"/><path class="st6" d="M175.2.2h6c10.3 8 22.4 10.9 34.9 12.9 10.7 1.7 21.4 3.8 32.3 4 .6.1 1.1.2 1.6.4 5.3 2.3 11 1 16.4 1.3 2 .1 3.9 0 5.9.2.6.1 1.1.2 1.7.4 8.7 2.6 17.6.8 26.4 1.6.6.1 1.2.2 1.7.3 11.2 2.4 22.6 1.1 34 1.4 2.1.1 4.3-.1 6.4.2.6.1 1.3.2 1.9.3 8 .5 15.9 1.4 23.9 1.4 49.3.1 98.6.1 147.9.1h30.4c2.1 0 4.3-.3 6.3.9 1.1 2.7-1.3 2.5-2.6 2.7-2.4.4-5 0-7.4.9-15.5.6-30.9.1-46.4.3-2.5 0-5-.1-7.4.7-7 .6-14 .3-21 .3-24.3.1-48.6.7-72.9-.2-20.8-.7-41.6-.5-62.4-.9-.6 0-1.2-.1-1.8-.3-10-1.7-20-1.8-30.1-1.6-2.1 0-4.3.1-6.4-.1-.6 0-1.2-.2-1.7-.3-9.3-2.2-18.8-1.2-28.3-1.7-.6-.1-1.1-.2-1.7-.3-6.7-2-13.6-1.3-20.4-1.7-.5-.1-1.1-.2-1.6-.3-5.3-2.2-11-1.1-16.6-1.7-.5-.1-1-.2-1.5-.4-4.8-2.1-10-2.1-15-3-9.3-1.7-17.9-4.6-26.1-9.1-3.3-2-6.8-4-6.4-8.7z"/><path class="st7" d="M189.2.2h9c9.5 6.3 20.4 7.7 31.3 9.9 5.8 1.2 11.8 1.3 17.5 3 5.3 1.6 10.9.2 16.3.9.6.1 1.1.2 1.6.3 7 2.3 14.4 1 21.6 1.7.6.1 1.1.2 1.7.3 9.9 2.1 19.9 1.1 29.8 1.6.6 0 1.2.1 1.8.3 12.9 2 25.9 1.5 38.8 1.6h8.5c4.1 0 8.2-.3 12.4.4 2.3.7 4.6.7 6.9.7h101.8c2.3 0 4.7 0 6.9-.7 14.5-.5 29-1.8 43.6-1.2 7.1.3 14.2-.8 21.3-1.1 8.2-.2 16.5.6 24.6-.5 2-.4 4.1-.8 6.1-1.3 5.4-.4 10.7-.2 16.1-.2 1.5.1 3 .1 4.2 1 .3 3.6-3.2 2.2-4.6 3.5-2.7 1.1-5.4 1.6-8.3.9-6.7-1.6-13.2.5-19.8 1-1.1.3-2.3.4-3.5.4-3.8.6-7.5.8-11.3.2-4.8-.8-9.6 0-14.3.8-6.9 1.1-13.9.6-20.8 1.5-54.6.1-109.2.1-163.8-.1-7.1 0-14.3.3-21.3-.8-6.4-.8-12.8-.8-19.3-1-7.6-.2-15.2.2-22.7-1-8.5-1.9-17.1-.3-25.6-1.5-.8-.1-1.7 0-2.4-.5-4.8-1.4-9.8-.9-14.7-1-3.1 0-6.3.1-9.3-1-1-.7-2.2-1-3.3-.9-7.6 1.1-14.8-1.5-22.1-2.4-10.3-1.3-20.5-4-30.1-8.2-2.7-1.3-5.7-2.6-4.6-6.6z"/><path class="st8" d="M165.2.2h5c6.4 6.8 14 11.6 23.1 14 8.2 2.2 16.5 4.5 25 5 1.7.1 3.3.2 4.8 1 5.2 2.1 10.8.3 16.1 1.5.6.1 1.3.1 1.9.5 6.3 2.1 12.8.3 19.1 1.5 1 .2 2-.2 2.9.5 8.6 1.7 17.4.5 26.1 1.5 1.3.1 2.7-.3 3.9.5 5.1.8 10.2 1 15.3 1 7.6 0 15.2.1 22.7 1 5.1 1.1 10.2.8 15.3.9 46.6.8 93.2.9 139.8.5 14.8-.1 29.6-.1 44.4-.4 14.5-.5 29.1.5 43.5-1.8.6-.2 1.2-.3 1.8-.4 8.3.1 16.6-1.1 24.8.7 1.3 1.7-.2 2.2-1.3 2.6-1.3.5-2.8.5-4.1 1.3-5.1 1.1-10.1 2.2-15.5 1.4-7.7-1.2-15.4 1.2-23.1.7H361.6c-12.1-.1-24.3.7-36.4-.2-15.9-1.1-31.8-1.3-47.6-2.9-1.3-.1-2.6-.5-3.9-.9-1.1-.3-2.2-1.1-3.3-1-10.2.7-20.2-1.5-30.3-2-9.4-.5-18.8-2-28.1-3.4-7.6-1.2-15.1-2.4-22.4-4.8-8.2-2.7-16.4-5.8-22.3-12.7-1.3-1.6-3.4-3-2.1-5.6z"/><path class="st9" d="M753.2.2c-.7 10.1-5.9 18.1-13.2 24.5-7 6.3-15.3 10.5-24.2 13.7-6.5 2.3-13.2 3.9-19.7 5.2-5.5 1.1-11.3 1.9-16.9 2.8-9 1.5-18.3.5-27.1 3.6-.3.1-.7.2-1 .1-10-1.4-19.6 2.1-29.5 2-16.4-.1-32.6 3.3-49 2.1-1.4-.1-2.9.6-4.3.9-10.5 1.1-21.1.2-31.7.5-2.1.1-4.3-.5-6.3.5-4.7.2-9.4-.6-14 1-1.4.8-2.9.5-4.4.5H361.7c-1.5 0-3 .4-4.4-.5-3.5-1.8-7.3-.7-11-1-6.9-1.2-13.8-.2-20.7-.5-6.1-.3-12.2.6-18.3-.5-2.2-1.4-4.6-.9-7-1-6.9-1.2-13.8-.2-20.7-.5-2.8-.1-5.6.5-8.3-.5-1.5-1-3.2-1.1-5-1-5-1.1-10.1-.2-15.2-.5-1.9-.1-3.9.5-5.8-.5-2.2-1.4-4.6-.9-7-1-5.6-1.4-11.4.4-17-1-1.1-.3-2.3-1.1-3.3-.9-8.2 1.3-16.1-1.5-23.9-2.6-5.4-.7-11.2-1.6-16.7-2.8-7.7-1.6-15-4.3-22.4-6.4-6-1.7-11.1-5.2-15.7-8.8-5.5-4.2-11-9.1-14-15.9-1-2.2-.4-4.7-1.9-6.6-.7-1.7-.8-3.3 0-5h1c2 1 2.7 2.9 3.3 4.8 3.5 11.9 11.9 19.4 22.3 24.9 11.1 5.9 23.2 8.7 35.4 11 12.4 2.4 24.9 4.1 37.4 5.2 13.4 1.2 26.8 2.1 40.2 3.3 14.4 1.3 28.8 1 43.2 2.6 11.9 1.3 23.9 1.3 35.9 1.1 2.3 0 4.6 0 6.9.4 4.6 1 9.2 1.2 13.9 1.2 32.1-.2 64.3 1 96.4.4 17.8-.3 35.6-.1 53.4-.4 4.8-.1 9.6-.2 14.4-.9.6-.2 1.2-.4 1.8-.5 9.2-1 18.4-.3 27.7-.4 5.6-.1 11.2.2 16.7-1.2.6-.2 1.1-.3 1.7-.4 5.3-.8 10.6-.3 15.9-.3 5.5 0 11 .1 16.3-1.3.5-.2 1.1-.3 1.7-.4 5.4-.8 10.8-.3 16.2-.3 2.8 0 5.5-.3 8.2-1.2.5-.2 1.1-.3 1.6-.4 4.4-.7 8.8-.3 13.2-.3 2.5 0 4.9-.4 7.2-1.2.5-.2 1-.3 1.6-.4 8.5.4 16.8-1.4 25.1-2.6 15.2-2.3 30.6-4.5 44.2-12.4C737.1 24.1 746.4 16.3 749 3c.2-1 .6-1.9 1.3-2.6.9-.2 1.9-.2 2.9-.2z"/><path class="st10" d="M319.2 19.2h-1c-9-1.4-18.1-.7-27.1-1.5-1.3-.1-2.7.3-3.9-.5-7.6-1.9-15.4-.1-23-2-1.9-.8-3.8-1-5.8-1-9.3.3-18.3-2.1-27.4-3.6-7-1.1-13.8-3-20.7-4.6-2.9-.7-7-.8-6.2-5.8h11c8.1 3.2 16.5 4.7 25 6.5 7.5 1.6 15.1 1.6 22.5 3.5 3.1.8 6.3.4 9.4.5 2.7.1 5.3-.2 7.9.9 1.3.8 2.8 1.1 4.3 1.1 16.5-.6 32.8 1.4 49.2 2.3 64.5 3.3 129 .9 193.5 1.7 8.9.1 17.9-.1 26.8-.1 2 0 4-.2 5.8.8.6.4.8.9.5 1.6-14.5 1.6-29.2.4-43.7 1.2-7.1.4-14.2.6-21.3.8-1.2.8-2.6.5-3.9.5H382.9c-1.3 0-2.7.3-3.9-.5h-12c-7.7-.9-15.5-.7-23.3-.9-8-.1-16.2-.1-24.5-.9z"/><path class="st11" d="M140.2.2c3.3 14 13.9 20.7 25.9 26 8.8 3.8 18.2 5.6 27.5 7.5 5.6 1.2 11.7 1.7 17.5 2.6 11.4 1.7 23 .8 34.3 3.8 1.6.4 3.3.2 5 .2 17.2-.5 34.4 1.7 51.6 2.6 11.7.6 23.5.6 35.2 1.4 57.3 3.8 114.7 2.1 172.1 1.5 18.7-.2 37.6 0 56.1-2 11.3-1.2 22.7.2 33.6-1.8 9.6-1.8 19.2-.5 28.6-1.9 13.1-1.9 26.3-2 39.2-4.1 11.1-1.8 22.6-2.6 33.3-7 3.1-1.3 6.6-1.9 9.8-3.1 8.9-3.3 15.5-9.5 21.5-16.5 2.2-2.6 2.5-6.1 3.8-9.1h3c-.6 7.7-5.4 13.2-10.7 17.7-10.9 9.3-24.2 13.1-38.1 16-11.4 2.4-22.9 3-34.3 5.3-.7.1-1.3.3-2 .3-11.3-.7-22.5 1.5-33.7 2.6-15.7 1.5-31.5.7-47.1 3-11 1.6-22.3-.1-33.4.7-60.2 4.2-120.4 1.4-180.7 1.6-18.3.1-36.8-.9-55.2-2.3-8.6-.7-17.3-.6-25.8-1.5-11.4-1.1-22.8-1.3-34.1-2.4-6.4-.6-13.1-.1-19.1-1.8-7.3-2.1-14.9-.1-21.9-3.2-14.7.7-28.3-4-41.5-9.5-9.8-4.1-17.9-11.1-23.2-20.8-1-1.8-1.5-3.7-1.3-5.7 1.5-.1 2.8-.1 4.1-.1z"/><path d="M325.2.2h7c2.1 1 4.4.3 6.6.5h126.1c3.8-.3 7.6.6 11.4-.5h73c.1 2.5-1.7 3.1-3.6 3.2-7.4.7-14.8 2-22.3 2-36 .3-72 3.2-108.1 2.2-21.1-.6-42.1-2.5-63.2-2.3-7.6.1-15.1-1.9-22.8-1.9-2 0-4.1-.4-4.1-3.2z" fill="#dfdfdf"/><path d="M260.2.2h18c.4.3.8.8 1.3.7 7.3-.4 14.3 2.7 21.6 1.9 2 .1 4-.1 5.9.5 2.7 1.9 5.8 1.5 8.8 1.5 5 .2 10-.5 15 .4 2.9 1.8 6.2 1.6 9.4 1.5 3.8 0 7.7-.2 11.5 0 46.1 2.7 92.3 1.8 138.4 2 2.7.3 5.3-.3 7.8-1.6 11.9-.9 24 .7 35.8-.7 11.8-1.4 23.7-1.1 35.5-3.2 6.6-1.2 13.4-1.8 20.2-2.1 2-.1 4 .3 5.8-1h18c.2 2.2-1.4 2.9-3.1 3.2-9.3 1.7-18.6 3.4-28 4.2-10.7.9-21.6.9-32.1 2.5-15.8 2.3-31.5 0-47.1 1.7-38.5 4.1-77 .7-115.5 1.8-2.3.1-4.7.1-7-.2-3.3-1.3-6.7-1.7-10.3-1.6-6.3.1-12.7-.4-19 .1-14.7 1.1-29.1-1.6-43.7-2.6-14.6-1-29.3-2.8-43.8-5.7-1.7-.3-4.4 0-3.4-3.3z" fill="#e2e2e2"/><path class="st9" d="M348.2 54.2c-7.7 0-15.3-.1-23 0-16.6.3-33.1-1.9-49.7-2.5-17.1-.6-34.3-2-51.4-3.9-12.7-1.4-25.5-3-38.2-5.4-11.4-2.2-22.5-4.7-33.1-9.4C138.2 26.5 128 16.1 124.2.2h4c3.2 15.1 12.6 24.2 26.7 30.3 18.1 7.8 37 10.3 56.2 12.9 16.6 2.2 33.3 3 49.9 4.8 5.8.6 11.6.8 17.4 1.1 17.5 1 35.1 2.3 52.6 2.9 24.9 1 49.8 1.4 74.7 1.1 1.9 0 4-.8 5.7 1-1 1.9-2.8 1.5-4.4 1.5-14.8 0-29.6.2-44.4-.1-4.9-.2-9.7-.9-14.4-1.5z"/><path class="st11" d="M202.2 36.2c11.2.6 22.4 1.8 33.4 3.5 12.3 1.9 25-.6 37 3.4.5.2 1 .1 1.5.1 20.9-.9 41.8 1.3 62.7 2.4 58.7 3.1 117.4 1 176.1 1.3 17.9.1 35.8-.9 53.7-2.2 11.1-.7 22.4.1 33.2-1.9 12.3-2.3 24.8-.4 37.1-3.3 7.6-1.7 15.8-1.2 23.7-2 6.9-.7 13.8-1.8 20.6-2.7 9.1-1.1 18.2-3.5 26.9-6.7C722 23 733.2 14.7 738.3.1h2c-2.4 8.2-7 14.9-13.9 19.8-6.7 4.8-13.9 9.1-22.1 11.1-8.1 2-16.4 3.5-24.6 5.3-7.5 1.6-15.3.6-22.5 3.2-.6.2-1.3.5-1.9.4-12-1.2-23.8 1.7-35.7 2.5-13.1.9-26.3.1-39.2 2-11 1.7-21.9.9-32.8 1.6-66 4.3-132.1 1.5-198.2 1.6-16.1 0-32.6-.3-48.7-2-10.1-1.1-20.4.1-30.2-1.9-9.6-2-19.3-.2-28.5-2-6.8-1.3-13.6-.5-20-2-5.6-1.3-11-1.6-16.6-1.7-1.5.1-2.5-.5-3.2-1.8z"/><path class="st14" d="M595.2.2c-.5 1.1-1.4 1.9-2.7 1.9-3.8 0-7.6 1.6-11 1.6-7.7 0-15 1.8-22.5 2.6-20.6 2.1-41.2 1.7-61.9 1.8-1.6 1.8-4.1 1-6 2-34 0-68 .9-101.9-.4-16.7-.6-33.4-1.5-50.1-1.6-2.5-1.2-5.8.4-8-2h-16c-2.5-1.2-5.8.4-8-2h-6c-2.3-1.1-4.8-.2-7.2-.5-2.2-.3-4.7-.3-4.8-3.5h11c1.5 1 3.1 1 4.8 1 10.3.1 20.6 1.3 30.8 2.4 11 1.2 21.9.8 32.8 1.7 32.9 2.5 65.8 1.9 98.7 1.9 7.3 0 14.8.5 21.9-.7 14.9-2.5 29.9.3 44.7-1.9 9-1.3 18.2-1 27.1-3 3-.7 6-.2 9-.3 2.1-.1 4.4.3 6.3-1h19z"/><path class="st15" d="M576.2.2c-.4.9-1.1 1.8-2.2 1.8-5.9.2-11.7 1.4-17.5 1.9C536.7 5.6 516.7 5 497 6.6c-36 2.9-72 1.5-108 1.1-15.9-.2-32.1-.1-48-1.9-7.9-.9-15.8-.5-23.5-1.8-5-.8-9.9-1.9-15.1-1.9-1 0-1.7-.9-2.2-1.8h25c.7 1.6 2 2 3.7 2 14.9.3 29.8 1.6 44.7 2.3 30.5 1.4 61 2 91.6 1.4 19.7-.4 39.4-2 59.2-2 7.2 0 14.4-1.6 21.7-1.8 1.5 0 2.5-.7 3.2-2h26.9z"/><path class="st16" d="M260.2.2c.1.9.5 1.9 1.4 1.8 5.9-.8 11.5 1.4 17.1 2.5 8.9 1.6 18.1.2 26.7 3.5.6.2 1.3.1 2 .2 22 1.6 43.9 2.5 65.9 2 2.6-.1 4.9.3 6.9 2 1.1.9 2.5.3 3.7.6 1.8.4 1.6 1.2.3 2.1-1.7.9-3.5.8-5.4.8-14.8-.1-29.7 1.1-44.4-.8-11-1.4-21.9-.2-32.8-1.9-2.3-1-4.7-1.5-7.2-1.5-11 .1-21.7-2.1-32.5-3.3-8-.9-15.7-2.4-23.4-4.6-1.7-.5-4.4-.2-3.4-3.4h25.1z"/><path d="M385.2 14.2c-1.2-1.9-3.8-.1-5-2 36.8 0 73.6 1.1 110.3-.5 17.3-.7 34.8 0 51.9-2 8.7-1 17.6 0 26-1.8 12.3-2.6 25.1-1.6 37.2-5.6 2.5-.8 5.8 1.2 7.6-2.1h18c.1 3.2-2.4 3.8-4.7 4.2-8.5 1.5-16.8 4.1-25.6 3.4-.8-.1-1.7.1-2.4.4-4.4 2-9.2 1-13.6 1.8-14.6 2.4-29.6.4-44 4-1.5.4-2.9.3-4.5.2-16.3-.8-32.6-1.3-48.8 1.4-32.1.1-64.2 0-96.3.1-1.8 0-3.7.2-5.4-.7-.2-.4-.4-.6-.7-.8z" fill="#e3e3e3"/><path class="st18" d="M151.2.2h5c2.2 1.7 3.2 4.3 4.8 6.3 5.3 6.5 12.7 9.6 20.2 12.2 10.3 3.5 21.2 4.5 31.9 6.6 7 1.3 13.8 1.2 20.7 1.8.5.1 1.1.2 1.6.4 1.5.6 2.9 1.5 4.5 2.1 15-.4 29.9 1.8 44.8 2.7 12.3.7 24.5 1.2 36.8 1.6 1.2 0 2.3.2 3.3 1 .5.5.5 1.1.1 1.7-3.1 1.9-6.5 1-9.7 1.1-5.1.2-10.3-.1-15.4 0-2.5 0-5-.2-7.5 0-15 1.2-29.8-1.8-44.7-2.5-12.6-.6-25.4-1.7-38-3.7-12.6-2-25.2-4.4-37.1-9.3-7.2-2.9-13.8-6.7-18.7-12.9-2-2.7-4.2-5.4-2.6-9.1z"/><path class="st19" d="M488.2 14.2c5.9-1.2 11.8-1.9 17.7-2 12.4-.1 24.9 1 37.2-.4 9.4-1.1 18.8-1.7 28.2-1.6 3.6 0 6.6-2.1 10.2-2.1 6 .1 12-.7 18-1.3 8.6-1 17.2-2.4 25.8-3.6 2.4-.3 4.6-.8 5.9-3h15c.2 3.1-2.1 3.7-4.4 4.4-6.4 2-13.1 2.2-19.5 3.9-9.2 2.3-18.8 1.6-28 3.7-6.8 1.5-14-.4-20.8 1.8-.8.4-1.5.8-2.3 1-.8.3-1.7.4-2.5.3-8.5-1.2-16.9-1.3-25.3.6-.5.2-1 .3-1.6.4-2.7.4-5.4.1-8.1.9-2.3.1-4.6.2-6.9-.1-12.2-.6-24.5-.7-36.7.1-6.8-.2-13.7.9-20.5-.7-.5-3 1.9-1.5 2.9-1.6 5.2-.6 10.5.4 15.7-.7z"/><path class="st20" d="M151.2.2c2.6 11.3 11.5 16.2 21 20 9.9 4 20.1 6.9 30.9 8.3 12.1 1.6 24.2 2.8 36.3 4.1 8.8.9 17.7.1 26.1 1.9 11.3 2.5 22.5.9 33.7 1.7.8.7 1.8.4 2.8.6 1.5.3 2 1 .5 2.1-9.9.7-19.8.2-29.7.3-.9-.1-1.8-.4-2.6-.9-1.9-1.4-4.2-1.2-6.3-1-13.6 1.3-27-1.9-40.5-2.5-9.5-.4-19.2-1.8-28.6-3.8-11-2.3-22.1-4.8-32.4-9.9-7-3.5-12.6-8.6-15.9-15.8-.8-1.7-1.8-3.3-.4-5.1h5.1z"/><path class="st6" d="M694.2.2h8c1.9 4-1.2 5.9-3.7 7.5-6.4 4.1-13.5 7-20.9 8.9-14 3.7-28.2 5.3-42.5 6.8-7 .7-14.3-.9-21.2 1.6-.6.2-1.1.3-1.7.4-6.9-.1-13.8 1.2-20.6-.7-1.1-1.8.4-2.1 1.5-2.5 1.3-.5 2.8-.5 4.1-.9 8.9-1.1 17.8-1.5 26.7-2.6 8.7-1 17.4-1.7 26.1-3 12.3-1.8 24.5-4.1 35.9-9.3 3.2-1.4 5.5-4.2 8.3-6.2z"/><path class="st9" d="M529.2 52.2c.7-.3 1.5-.9 2.2-.9 9.3-.2 18.6-.5 27.9-.9 22-1 44-2.3 66-4 12.7-1 25.5-1.7 38.1-3.3 21.1-2.7 42.8-3.8 61.8-15 10.7-6.3 19.3-14.6 21-27.9h2c2 5-.8 9.1-3 12.9-6.5 11.1-16.9 17.4-28.6 22-6.3 2.5-12.9 4.4-19.5 5.4-5.8.9-11.6 2.1-17.5 2.8-7.8 1-15.7 1.5-23.4 2.8-4.8 1.6-9.8.8-14.7 1-2.5.1-5-.3-7.3 1-6.2 1.8-12.5.7-18.7 1-2.5.1-5-.3-7.3 1-8.9 1.8-17.8.7-26.7 1-2.5.1-5-.3-7.3 1-11.6 1.9-23.3.6-35 1-2.1.1-4.3 0-6.4 0-1.2 0-2.6.1-3.6-.9z"/><path class="st19" d="M235.2.2c2.6 3.5 7 2.2 10.4 3.9 6.6 3.1 14.3.8 21 4 .3.1.7.1 1 .1 9.8-.9 19.2 3.5 29 2.1 1.8-.3 3.7-.1 4.7 2-7.3 1.6-14.7 1.6-22 0-10.1 1.4-19.9-1.3-29.8-2.3-9.7-.9-19.3-3.7-28.9-6-1.9-.5-4.6-1-5.3-3.8h19.9z"/><path class="st21" d="M732.2.2c.6 2.5-.7 4.7-2.1 6.4-7.4 9.2-15.9 16.6-27.9 19.9-7 1.9-14.2 3-21.2 5.4-4.2 1.4-9.1 1.4-13.5 1.8-7.4.5-14.5 2.6-21.9 2.6-13-.1-25.9 2.2-38.9 2.5-6.3.2-13 1.2-19.5 1.5.5-2.8 2.9-2.1 4.7-2.3 3.3-.4 6.7.6 9.8-1 3.4-2 7.2-1.9 11-2.1 6.7-.3 13.5 1.3 20-1.3.6-.2 1.3-.5 1.9-.4 10.2.9 20.2-1 30.1-2.5 14.9-2.2 30.1-3.8 44-10.8 8.7-4.4 15.7-10.3 19.5-19.6 1.4-.1 2.7-.1 4-.1z"/><path class="st8" d="M165.2.2c3.8 8.2 11.4 11.7 19 14.8 8.3 3.3 17.1 4.6 25.8 6.5 14.9 3.1 30.1 2.8 45.1 5.6 4.3.8 8.9.1 13.4.2 1.6 0 3.4-.5 4.7 1-2.2 2.1-5 1.4-7.5 1.4h-12.4c-6-.4-12.2 1-18.1-1.4-.4-.3-.8-.5-1.4-.5-8.6.2-17.1-1.3-25.5-2.6-14.1-2.3-28.3-4.6-40.4-13.3-2.6-1.9-5-3.9-6.7-6.6-1-1.5-2.4-2.9-1.1-4.9 1.8-.2 3.5-.2 5.1-.2z"/><path d="M635.2 22.2c1.3-.3 2.5-.9 3.8-1 15.8-.6 31.1-3.6 46.1-8.3 4.6-1.4 8.8-3.9 13-6.4 2.2-1.3 4.5-3.1 4.1-6.3h6c1.9 3.4-.5 5.4-2.6 7.1-8 6.7-17.6 9.8-27.5 12.2-8.8 2.1-17.7 4.1-26.8 4.2-1.5 0-2.8 1.1-4.2 1.6-3.1 1.5-6.5 1.3-9.8 1.3-3.5 0-6.9.1-10.3.9-6.4-.2-12.9.9-19.2-.7-1.4-1.3-.5-1.8.8-2.1 1.5-.3 3.2.4 4.6-.6 7.2-2 14.8.2 22-1.9z" fill="#efefef"/><path class="st23" d="M571.2 14.2l1-1c1.8-1 4-.9 5.8-.7 10.5.7 20.7-2 31.1-2.6 6.7-.4 13.6-2.1 20.4-3.2 7.4-1.2 14.5-3 21.6-5 1.1-.3 2.2-.6 3.1-1.4h16c1.1 2.8-1.3 3.5-2.9 4.2-5.9 2.5-12.4 3.5-18.6 5.1-6.4 1.6-13.1 1.5-19.3 3.6-.5.2-1 .3-1.5.3-11.7-.1-23.3 3.5-35.1 2.2h-15.9c-2-.2-4.1.1-5.7-1.5z"/><path class="st24" d="M719.2.2h6c1.5 2.7 0 4.8-1.6 6.7-7.9 9.8-17.9 15.7-30.4 18.6-8.5 2-17.3 2.8-25.7 5.4-3.5 1.1-7.6.5-11.4 0-1.8-1-.9-2.1-.1-3.1s1.9-1.7 3-2.2c.5-.2.9-.3 1.4-.4 4.2-.5 8.6.4 12.5-1.7 9-.9 17.6-3.4 26.1-6.1 9.3-3 15.3-9.5 20.2-17.2z"/><path class="st5" d="M146.2.2c2.5 9 8.1 15.5 16.3 19.6 8.4 4.2 17.4 6.8 26.7 8.6 9.4 1.8 18.8 2.9 28.2 4.3 6.6 1 13.3.4 19.6 1.7 10 2.1 20 1.7 30.1 1.8 1.5 0 2.5.7 3.2 2-6.5 0-13 .5-19.5-.1-9.2-.9-18.4-1.3-27.5-2.3-9.5-1-19.1-2.1-28.5-3.9-8.5-1.6-17-4-25.4-6.8-5.4-1.8-10.2-4.5-14.7-7.6-6.1-4.2-9.5-10.8-12.4-17.4 1.3.1 2.6.1 3.9.1z"/><path class="st7" d="M593.2 14.2c3.8 0 7.7.5 11.4-.1 9.3-1.4 18.7-1.6 28-3.5 4.7-1 9.6-1.6 14.4-2.4 7.4-1.2 14.6-2.9 21.4-5.9 1-.5 1.7-1 1.7-2.1h7c1.3 2.9-1.1 3.8-2.9 4.8-7.8 4.3-16.5 5.5-25 7.6-7.4 1.8-15 1.6-22.4 3.5-5.1 1.3-10.6.4-15.8.7-1.3.1-2.7-.4-3.8.5h-17c-.3-.3-.4-.7-.3-1.2.7-1.5 2.4-1.1 3.3-1.9z"/><path class="st20" d="M655.2 30.2c12.4.2 24.2-2.5 36.1-5.6 6.4-1.7 13-2.8 18.3-6.6 6.5-4.6 13.3-9.4 15.6-17.9h3c.5 3.7-1 6.4-3.5 9.2-8.4 9.3-19 14.1-30.9 17-7.1 1.7-14.3 2.8-21.5 4.1-13 2.3-25.9 4.1-39 3.7-.1-.2-.1-.5-.2-.7.4-1 1.2-1.5 2.2-2 .5-.2 1-.3 1.5-.4 5.9-.6 11.9.5 17.7-1 .2.1.5.1.7.2z"/><path class="st25" d="M694.2.2c-1.5 4.8-5.5 6.8-9.8 8.4-12.9 4.9-26.2 7.2-39.9 9-15.8 2-31.6 3.2-47.3 4.6-7.1.9-14.3 2.7-21.5.6-.6-.4-.8-.9-.5-1.6h3c6.6-.8 13.3-1.1 20-1 2.7.2 5.4-.2 8-1 10-1.1 20-2.3 29.9-3.6 15-1.9 30.2-3.3 44.2-9.9 3.2-1.5 6.1-3.3 8.9-5.5h5z"/><path class="st26" d="M160.2.2c3.2 8.5 10.6 12.5 18.1 15.8 11 4.9 22.8 6.6 34.7 8.7 7.4 1.3 15.3-.7 22.2 3.5-11.4.6-22.5-2-33.7-3.7-11.6-1.8-22.7-4.5-33-10.1-5.8-3.2-10.5-7.5-12.3-14.2h4z"/><path class="st9" d="M656.2 46.2c.8-1.2 2.2-2 3.4-1.9 7.6 1 14.7-1.5 22.1-2.3 10.5-1.2 21-3.3 31.2-6.5C723 32.3 731.6 27 739.1 20c5.4-5.1 8.5-12.1 9.1-19.8h2c-.5 12.1-7.5 20-16.6 26.8-9.9 7.3-21.2 11-33.1 13.4-14.6 2.9-29.3 5.9-44.3 5.8z"/><path class="st8" d="M647.2 24.2c.8-1.2 2.2-2 3.4-1.8 6.6 1 12.7-1.7 19.1-2.3 5.9-.6 11.7-2.7 17.4-4.4 5.7-1.7 10.9-4.4 15.7-7.8 2.7-1.9 5.5-3.8 5.5-7.7h5c.1 5.4-3 8.7-7.2 11.5-7.9 5.2-16.8 7.4-25.8 9.8-6.6 1.8-13.4 1.7-20 3.6-4.4.2-8.9 1.6-13.1-.9z"/><path class="st25" d="M189.2.2c1.4 6.3 7.4 6 11.7 7.6 9.3 3.6 19.1 5.2 28.9 6.7 5.2.8 10.3 1.4 15.5 1.7 1.5.1 2.9.7 3.9 1.9-11.1.3-21.9-1.9-32.8-3.8-10.6-1.9-21.1-3.7-30.6-9.3-2.1-1.3-3.8-2.6-4.6-4.9 2.7.1 5.4.1 8 .1z"/><path class="st7" d="M607.2 17.2c1.9-1.6 4.6-1.9 6.5-1.7 8.4.7 16.4-2.6 24.7-2.3 4 .1 7.7-1.7 11.6-2.3 8.4-1.3 16.9-3.4 24.6-7.4 1.4-.7 2.6-1.5 2.6-3.3h7c-.3 5.4-4.9 6.5-8.6 7.7-9.9 3.2-20 5.1-30.3 6.7-8.1 1.3-16.4 1.1-24.5 3.2-3.1.8-6.6 1.2-9.7-.6h-3.9z"/><path class="st25" d="M611.2 17.2c11.6.1 22.9-2.1 34.3-3.7 9.5-1.3 18.8-3.2 27.9-6.1 4.5-1.4 8.2-3.3 10.8-7.2h5c-2.3 6.3-8.5 7-13.5 8.8-10.2 3.6-20.8 5.3-31.7 6.6-12.6 1.4-25.1 3.7-37.8 3.7 1.2-2 3.8-.2 5-2.1z"/><path class="st19" d="M654.2.2c-1.5 4.1-5.7 3.9-8.7 4.6-11.7 2.5-23.4 5.4-35.3 6.1-12.7.8-25.2 3.7-38 2.3 1.9-1.6 4.6-1.9 6.5-1.7 9.7.8 19.1-2.5 28.7-2.2 5.4.2 10.3-2.1 15.7-2.4 6.5-.3 12.9-2.4 19.4-3.7 1.8-.4 2.9-1.5 3.7-3h8z"/><path class="st27" d="M223.2 20.2c-15.3-.2-29.9-3.4-43.6-10.3-4.1-2.1-7.6-5.1-9.4-9.7h5c2.9 7.2 9.8 9.3 16 11.7 9 3.6 18.4 5.7 28.1 6.3 1.6.1 2.9.7 3.9 2z"/><path class="st7" d="M204.2.2c.2 3.3 3.1 4 5.3 4.5 10.3 2.4 20.6 5.2 31.2 6.8 6.2 1 12.4 1.5 18.6 1.8 1.8.1 3.6.6 5 1.9-11.3.4-22.2-1.6-33.3-3.6-7.3-1.3-14.4-3.1-21.7-4.5-4.4-.9-8.5-2.7-11.1-6.9h6z"/><path class="st26" d="M661.2 24.2c1.6-1.4 3.5-1.8 5.5-2 13.7-1.2 26.6-4.6 38.6-11.5 4.4-2.5 5.8-6.7 7.9-10.6h3c.1 5.3-3.2 8.8-6.9 11.6-6.7 5.1-14.7 7.3-22.7 9.4-4.4 1.1-9 1.9-13.4 3-4.2 3.7-9.3 1.3-14 2-.5-1.8 1.5-1.1 2-1.9z"/><path class="st26" d="M673.2 24.2c3.2-3.2 7.8-2.7 11.6-3.7 6.5-1.6 12.6-3.8 18.7-6.5 6.3-2.7 10-7.9 12.7-13.9h3c-1.7 7.3-6.7 12.1-13 15.2-10.3 5.3-21.3 8.5-33 8.9z"/><path class="st0" d="M442.2 1.1h-71c-.3-.2-.4-.4-.3-.6.1-.2.2-.3.3-.3h71c.3.2.4.4.3.6-.1.2-.2.3-.3.3z"/><path class="st14" d="M289.2.2c1.4 2.4 3.8 2.9 6.4 3 1.9.1 4-.8 5.6 1-7.3 1.3-14-2.8-21.2-2.1-1.2.1-1.6-.9-1.8-1.9h11z"/><path class="st28" d="M360.2 1.2h-12c-.3-.2-.4-.4-.3-.7.1-.2.2-.3.3-.3h12c.3.2.4.4.3.7-.1.1-.2.3-.3.3z"/><path class="st26" d="M465.2 1.2h-12c-.3-.2-.4-.4-.3-.7.1-.2.2-.3.3-.3h12c.3.2.4.4.3.7-.1.1-.2.3-.3.3z"/><path class="st4" d="M453.2.2v1h-11v-1h11z"/><path class="st25" d="M465.2 1.2v-1h11c-3.5 2.1-7.3.5-11 1z"/><path class="st5" d="M360.2 1.2v-1h11v1c-3.6-.1-7.3 0-11 0z"/><path d="M348.2.2v1h-10c-.3-.2-.4-.4-.3-.7.1-.2.2-.3.3-.3h10z" fill="#eaeaea"/><path class="st3" d="M133.2.2c-.3 2.4.4 4.7 1 7-3.1-1.6-1.6-4.6-2-7h1z"/><path class="st15" d="M338.2.2v1c-2-.3-4.2.8-6-1h6z"/><path class="st1" d="M760.2 6.2v-6h1c-.3 2 .8 4.2-1 6z"/><path class="st9" d="M123.2.2v5c-1.7-1.4-.8-3.3-1-5h1z"/><path class="st1" d="M150.2 42.2c2.6-.4 4.7 1.3 7.1 1.8 11.3 2.6 22.6 5.1 34.2 6.4 12.2 1.4 24.4 2.7 36.6 4.2 7.6.9 15.3.1 22.6 1.8 10.4 2.4 20.7 1.3 31.1 1.8 2.2.1 4.2.8 5.4 3-2.3-.5-4.5-1.1-6.8-1-17 .2-33.9-2.1-50.9-3.6-8.9-.7-17.8-1.7-26.6-2.6-9.5-1-18.9-2.4-28.3-4.4-8.3-1.9-16.8-3.3-24.4-7.4zm304 22c1.4-2.8 4-2 6.2-2h89.8c-1.6 1.7-3.8 1-5.7 1-27.3.1-54.6.1-82 0-2.8-.1-5.6.1-8.3 1zm96-2c1.1-2.3 3.2-2 5.2-2h32.8c-1.3 1.5-3.1 1-4.7 1-8.5 0-17 .1-25.5 0-2.6-.1-5.2.2-7.8 1zm-129 2h32c-1.3 1.5-3 1-4.6 1h-22.7c-1.6-.1-3.4.5-4.7-1zm167-4c1.1-2.3 3.2-2 5.1-2h24.9c-2 1.9-4.4.8-6.7 1-7.7.5-15.6-1-23.3 1zm33-3c4.9-2.2 10-.5 15.1-1 2-.2 4 0 5.9 0-4.9 2.2-10 .5-15.1 1-1.9.1-3.9 0-5.9 0zm24-2c5.6-2.2 11.3-.4 17-1-5.5 2.2-11.3.4-17 1zm20-2c4.2-2.2 8.7-.4 13-1-4.2 2.2-8.7.4-13 1zm16-2c3.5-2.1 7.4-.5 11-1-3.5 2.1-7.3.4-11 1zm14-2c2.8-2 6-.6 9-1-2.8 2-6 .5-9 1zm10-2c2.1-1.9 4.7-.6 7-1-2.1 1.9-4.7.6-7 1zm8-2c2.1-1.9 4.7-.6 7-1-2.1 1.9-4.7.6-7 1zm45-31c.3-2-.8-4.2 1-6-.3 2 .8 4.2-1 6z"/><path class="st9" d="M357.2 57.2h159c-1.5 1.6-3.4 1-5.2 1H362.3c-1.7-.1-3.6.6-5.1-1zm-50-2H341c1.7 0 3.7-.7 5.2 1h-33.8c-1.8-.1-3.7.6-5.2-1zm223 1c1.5-1.6 3.4-1 5.2-1 10.9-.1 21.9 0 32.8 0-1.5 1.6-3.4 1-5.2 1h-32.8zm-259-3h24.3c1.6 0 3.4-.5 4.7 1h-24.3c-1.6-.1-3.4.5-4.7-1zm-26-2h16.4c1.6 0 3.4-.5 4.6 1h-16.4c-1.5-.1-3.3.5-4.6-1zm-24-2c5.7.6 11.4-1.2 17 1-5.6-.6-11.4 1.2-17-1zm127 5c18.9 1.4 37.8.9 56.7 1 2.2 0 4.3.2 6.3-1h99.3c5.9 0 11.8-1.3 17.7 0-5.2 1.8-10.7 1.8-16 1.9-50 .2-99.9.2-149.9.1-4.7-.1-9.5-.5-14.1-2z"/><path class="st9" d="M528.2 54.2c-18.9 1.3-37.8 1-56.7 1-2.2 0-4.3.2-6.3-1 1.5-1.6 3.4-1 5.2-1 14.7-.1 29.3 0 44 0 5 0 10 .3 14.9-1h3c-.4 2.7-3.1.6-4.1 2z"/><path class="st3" d="M407.2 50.2c2.6.8 5.1 1 7.8 1 15.4-.1 30.9-.1 46.3 0 2.7 0 5.3-.3 7.8-1-1.1 2.3-3.2 2-5.1 2h-51.7c-1.9 0-4 .3-5.1-2zm-84-2c4.7 1.6 9.5.8 14.3 1 1.9.1 4-.8 5.7 1h-15.4c-1.8 0-3.6.1-4.6-2zm210 2c2.3-2 5.1-.8 7.7-.9 3.5-.2 7 .2 10.3-1.1-.9 2.1-2.8 2-4.6 2h-13.4zm42-2c2.3-2 5.1-.8 7.7-.9 2.8-.1 5.6-.2 8.3-1.1-1.2 2.6-3.5 2-5.6 2h-10.4zm-290-2c4.4 2.2 9.6-.3 14 2h-9.4c-1.8 0-3.6 0-4.6-2zm-30-2c3.8 2 8.3-.2 12 2-3.9-.9-8.5 2-12-2zm-60-6c2.5 1.2 5.6.3 8 2-2.7-.5-6 1.4-8-2zm36 4c2.5 1.2 5.6.3 8 2-2.7-.5-6 1.4-8-2zm-20-2c2.5 1.2 5.6.3 8 2-2.7-.5-6 1.4-8-2zm-28-4c2 .7 4.3.5 6 2-2.1-.2-4.7.7-6-2zm-16-4c2 .7 4.3.5 6 2-2.1-.2-4.7.7-6-2zm-6-2c1.8.4 3.6.6 5 2-1.9 0-4 .3-5-2zm-4-2c1.6.2 3 .7 4 2-1.7.1-3.2-.2-4-2zm-4-2c1.6.2 3 .7 4 2-1.7.1-3.2-.2-4-2zm-19-19c1.3 1 1.8 2.4 2 4-1.8-.8-2.1-2.3-2-4zm41 27c1.6.2 3 .7 4 2-1.7.1-3.2-.2-4-2z"/><path class="st21" d="M602.2 38.2c-2.8 2-6 .6-9 1-2 .3-4.3-.8-6 1-4.7-1.8-9.7-1.7-14.2-.5-5 1.3-9.8 1.4-14.8 1.5-13.5.4-27-1.3-40.3 1.1-5.5 1-10.9.9-16.4.9H395c-2.3 0-4.7-.3-6.8 1-7.9-1.2-15.9-.3-23.9-.5-2.2-.1-4.3 0-6.1-1.5h-2c-4.4-1.1-8.9-.4-13.4-.5-10.2-.1-20.3-.1-30.5 0-2.2 0-4.3 0-6.1-1.5h-1c-9.5-1.2-19.1-.1-28.6-.6-1.5-.1-3.7 1.4-4.4-1.4h31c2.5-1.9 5.2-.4 7.7-.4 9-.1 18 0 27 0 6.8 0 13.6.4 20.4 1.4 2.3.8 4.6.6 6.9.6h144c2.2 0 4.3.2 6.4-.5 5.3-.4 10.5-1.7 15.8-1.5 10.8 0 21.6-.1 32.4 0 2.5 0 4.9-.5 7.4-.9 8.3-.2 16.6-.2 24.9-.2 2.2 0 4.4-.3 6.1 1.5z"/><path class="st5" d="M306.2 40.2c3.4 1.2 6.9 1 10.3 1H351c1.7 0 3.7-.7 5.2 1h-44.3c-2.1 0-4.5.5-5.7-2zm-34-2c1.3 1.5 3.1 1 4.6 1h23.7c1.6 0 3.3-.5 4.6 1h-29.8c-2 0-4.1.3-5.2-2h2.1zm86 4c8 2 16.2.5 24.3 1 1.9.1 4-.7 5.7 1h-24.9c-1.9 0-4 .3-5.1-2z"/><path class="st25" d="M343.2 24.2h186c.8-.5 1.6-.8 2.2.4-2 2.2-4.6.8-6.9 1.1-2.7.4-5.6-.5-8.3.5-46 0-92-.1-138 .1-10.8.1-21.6-1.5-32.4-1.1-.9 0-1.9-.1-2.6-1z"/><path class="st27" d="M531.2 30.2c-60.6 0-121.3.1-181.9-.1-6 0-12.1-.3-18.1-1.9 52.7 0 105.3 1.7 158 1 7.6-1.1 15.3-.3 22.9-.5 6.2-.1 12.3-.1 18.5 0 .7.3.9.7.6 1.5z"/><path class="st6" d="M516.2 26.2c2.8-2 6-.6 9-1 2-.3 4.3.8 6-1 11.7-.7 23.5-1.6 35.2-1.4 3 .1 5.8-1.3 8.8-.6h22c-1.5 2.1-4.5-.1-6 2-1.2 2-3.2 2.3-5.2 2.3-9.1.1-18.2 0-27.2 1-1.9.2-4 .3-5.6-1.3h-37z"/><path class="st27" d="M553.2 26.2c11.1-.2 22.1-1.6 33.2-1.1 1.6.1 3.2-.6 4.8-.9h22c-1.5 2.1-4.5-.1-6 2-1.6 1.6-3.6 1.2-5.5 1.2-8.8-.3-17.7-.4-26.5.8-9.8 1.4-19.6 1-29.4 1-1-.1-1.9-.2-2.6-1 3-2.6 7.1.6 10-2z"/><path class="st25" d="M301.2 22.2c12.9 0 25.9-.3 38.8 1 1.2.1 2.4-.1 3.2 1h-30c-4-.1-8.1-.6-12-2z"/><path class="st27" d="M331.2 28.2c-11.6-.2-23.3.7-34.8-1-1.1-.2-2.4.1-3.2-1 11.8.1 23.6-.4 35.3 1 1 .1 2 .1 2.7 1zm212 0h2c.1.7-.2 1.4-.9 1.4-4.4-.1-8.7.6-13.1-.4h-42c1.5-1.6 3.4-1 5.2-1h48.8zm-250-2c-9.1-.3-18.3.8-27.3-1-1-.2-2-.1-2.7-1 9.1.1 18.3-.4 27.3 1 1 .1 2 .1 2.7 1z"/><path class="st25" d="M273.2 20.2c8.4.3 16.9-.7 25.3 1 1 .2 2 .1 2.7 1-8.6-.4-17.3.9-25.8-1-.8-.2-1.5-.7-2.2-1zm-24-2c7.4.4 15-1 22.3 1.1.6.2 1.1.6 1.7.9h-18.1c-2.1-.1-4.2-.6-5.9-2z"/><path class="st27" d="M263.2 24.2H247c-2.2 0-4.3-.2-5.8-2 7.4.2 14.9-.9 22 2zm-22-2h-12.7c-2 0-3.9-.4-5.3-2 6 .4 12.3-1.3 18 2z"/><path class="st7" d="M379.2 21.2h116c-1.5 1.6-3.4 1-5.2 1H384.3c-1.7-.1-3.6.6-5.1-1z"/><path class="st25" d="M575.2 22.2c-10.1 2.5-20.3 2-30.6 2h-15.4c.4-.3.8-.8 1.2-.8 10.8.5 21.4-2.6 32.1-2.1 4.3.2 8.5.7 12.7-.1v1z"/><path class="st7" d="M319.2 19.2c15-.3 29.9.3 44.8 1 1.2.1 2.4-.1 3.2 1-10.2 0-20.3.3-30.5-.1-5.8-.3-11.8-.2-17.5-1.9z"/><path class="st10" d="M590.2 16.2v1c-1.5 1-3.2 1.1-5 1-8 .9-15.9.5-23.9.2-.5-1.6.8-2.2 1.9-2.3 9-1.3 18-1.8 27 .1z"/><path class="st7" d="M287.2 17.2c9.5 0 18.9-.3 28.3 1 1 .1 2 .1 2.7 1-9.5 0-18.9.4-28.3-1-1-.2-2-.1-2.7-1zm-23-2c7.7.4 15.6-1.3 23 2-7.7-.5-15.5 1.3-23-2z"/><path class="st25" d="M598.2 20.2c-6.6 2.1-13.3.5-20 1 6.6-1.2 13.2-3.4 20-1z"/><path class="st7" d="M561.2 18.2h24c-3.7 2.1-7.7.7-11.6.9-4.5.2-8.9.1-13.4.1v-1c.4-.3.7-.3 1 0z"/><path class="st8" d="M361.2 32.2h154c-.7 3.1-3.2 2.2-5.2 2.3-5.7.4-11.5-.6-17.3.8-3.5.5-7 .3-10.4.3h-92.6c-2.7 0-5.3.1-8-.3-5-1.4-10.2-.4-15.3-.8-1.9-.1-4.5.8-5.2-2.3z"/><path class="st18" d="M657.2 28.2l-2 2c-5.9 2.1-12.2.2-18.1 1.5-.6.1-1.3.1-1.9.5-7.2 2.7-14.6.9-21.9 1.4-18.9-1.1-37.6 3.1-56.5 2-2.3-.1-4.7.3-6.8-.8-1.4-1.4-.6-1.9.9-2.1 2.1-.3 4.3.5 6.4-.5 7.6.7 15.1-2.1 22.6-.8 5.4 1 10.3-.2 15.4-1.2 5.3-.8 10.6-1.7 16-1.4 3.1.2 6.2-.2 9.2-1.3.6-.2 1.2-.3 1.8-.3 6.4 0 12.8-.9 19.3-.5 5.1.7 10.6-1.4 15.6 1.5z"/><path class="st28" d="M361.2 32.2c3.8 2.1 8 .5 12 1 2.7.4 5.6-1 8 1-.2.2-.5.4-.7.7-1.2.7-2.5.7-3.9.7-16 0-31.9.1-47.9 0-1 0-2-.1-2.9-.5-5.5-1.4-11.1-1.6-16.7-1.3-6.1.4-12.2.6-18.2-.7-5.9-1.2-11.7-1.6-17.7-1-5.2.6-10.2-1-15.2-1.2-1.3-1.3-4.4.3-4.7-2.8h20c5.2 1.1 10.3 2 15.6 2.1 24.1.5 48.2 3 72.3 2zm196 0c-2.2 2.4-5.8-.4-8 2-.2.2-.5.4-.7.7-1.4.7-2.9.7-4.4.7h-45.8c-1.5 0-3 0-4.4-.7-.2-.2-.5-.4-.7-.7 4.5-2.1 9.3-.4 13.9-1 2.7-.3 5.6 1 8.1-1h42z"/><path class="st8" d="M575.2 28.2c5.4-1.7 10.9-2 16.5-2h35.5c-1.2 3.2-4.3.4-6 2-6.7 1.3-13.3 1.8-20 0h-26zm-44 1c4.7-.5 9.5 1.1 14-1h30c-4.2 1.6-8.7 1.8-13 1.9-10.3.2-20.6.1-31 .1v-1z"/><path class="st28" d="M601.2 28.2h20c-2.9 2.4-6.4 2-9.8 2h-16.2c1.5-2.1 4.5.1 6-2z"/><path class="st9" d="M528.2 54.2c.9-1.6 3.1-.4 4-2h42c-3.2 1.5-6.5 2-10 2h-36zm46-2c1.7-2 4-2 6.3-2h27.7c-4 2-8.2 2-12.5 2-7.2-.1-14.3 0-21.5 0zm34-2c1.7-2 4-2 6.3-2h19.7c-2.9 2.4-6.4 2-9.8 2h-16.2zm26-2c1.5-1.8 3.6-2 5.8-2h16.2c-4.2 3.2-9.1 1.7-13.7 2-2.7.1-5.5 0-8.3 0z"/><path d="M279.2 12.2h22c21.6-1.1 43 3.4 64.6 2.1 6.5-.4 13-.1 19.4-.1 5.2 1.1 10.4.3 15.7.5 2.3.1 4.6-.2 6.8.6 6.4.9 12.9.3 19.3.4 13.7.2 27.5-.2 41.2.2.3.1.6.1.9.2h21c12.3-.8 24.7-.8 37 0h7c.5-.4.9-.3 1.2.3-2.3 2.7-5.7 0-8.2 1.7-57.4 0-114.8.4-172.2-.2-15.4-.2-30.8-.9-46.1-2.3-8.5-.8-17-.9-25.5-1.5-1.6 0-3.2-.1-4.1-1.9z" fill="#e6e6e6"/><path class="st23" d="M527.2 18.2c2.2-2.4 5.8.4 8-2 2.2-1.3 4.8.3 7-1 8.2-1.5 16.4-1.1 24.6-.7.8 0 1.6.3 2.4-.3h24c-1 .7-2 1.3-3 2-8.9.4-17.9-.9-26.8 1-.8.2-1.5.6-2.2 1h-34z"/><path class="st14" d="M331.2 6.2c2.5 1.2 5.6.3 8 2-2.7-.5-6 1.4-8-2zm-24-2c2.5 1.2 5.6.3 8 2-2.7-.5-6 1.4-8-2zm184 6c1.7-1.5 4-1.3 6-2-1.3 2.7-3.8 1.8-6 2z"/><path class="st16" d="M407.2 16.2c-5.2-2-10.6-.5-15.8-1-2.1-.2-4.4.8-6.2-1h103c-3.5 2.1-7.3.5-11 1-2.7.4-5.6-1-8 1-1.4.8-2.9.5-4.4.5h-53.2c-1.5-.1-3 .3-4.4-.5z"/><path class="st24" d="M358.2 40.2c-18.3-2.3-36.7.4-55-2-.9-1.6-3.1-.4-4-2h26c3.5-1.9 7.3-.6 10.9-1 .6 0 1.3.1 1.9.2 8.4 1.2 16.9 1.3 25.4 1.3 53.1-.1 106.3 0 159.4 0 2.6 0 5.3-.4 7.9.7.7.4.9.9.6 1.7-5.1-.7-9.9 1.5-15 1-1.4.8-2.9.5-4.4.5H362.7c-1.6 0-3.1.4-4.5-.4z"/><path class="st18" d="M257.2 30.2c12.8 1.8 25.9-.7 38.7 2.8 3.4.9 7.3.5 10.8-.2 6.4-1.3 12.4.4 18.5 1.4.1.2.3.3.4.5-.1.2-.3.3-.4.5-19.4 1.5-38.7-2-58.1-2.3-8.8-.1-17.7-1.9-26.7-1.8-.7 0-1.5-.6-2.2-.9 6.4-2 12.7-1.1 19 0z"/><path class="st26" d="M257.2 30.2h-19c-1-.7-2-1.3-3-2h18c.9 1.6 3.2.4 4 2z"/><path class="st18" d="M336.2 36.2h-11v-1c3.7-.2 7.6-2 11 1z"/><path class="st19" d="M569.2 14.2c-3 2-6.4.8-9.6.9-5.8.2-11.6.1-17.4.1 8.9-3.2 18-2.5 27-1zm-42 2h-37c.8-1.1 2-1 3.2-1h30.7c1.1 0 2.3-.1 3.1 1zm15-1c-2.1 1.9-4.7.6-7 1h-1c2.5-2 5.4-.6 8-1z"/><path class="st27" d="M635.2 22.2c-7.1 3.6-14.7 1.4-22 2 7.1-3.6 14.7-1.4 22-2z"/><path class="st20" d="M602.2 38.2h-31c1-3.5 4.4-1.8 6.5-3 10.5-2.3 21.2-1 31.8-2h18.4c1.8 0 3.7-.4 5.3 1-1.5 1.8-3.6 2-5.8 2-5.6 0-11.2.1-16.8-.1-3-.1-5.8.4-8.4 2.1z"/><path class="st28" d="M621.2 28.2c1.5-2.1 4.5.1 6-2 3.8-1.4 7.8-1 11.7-1 2.8.1 5.6-.2 8.3-1h14l-2 2c-5.2 2-10.8.3-16.2 1.5-.6.1-1.3.1-1.8.5h-20z"/><path class="st26" d="M641.2 28.2c5.7-3.3 12-1.6 18-2l-2 2h-16z"/><path class="st24" d="M633.2 34.2h-24c.3-2.8 3-.6 4-2h22l-2 2zm2-2c6.4-3.5 13.3-1.5 20-2-2.1 2.5-5 2-7.7 2h-12.3z"/><path class="st20" d="M358.2 40.2h158c-1.5 1.6-3.4 1-5.2 1H363.3c-1.7-.1-3.6.6-5.1-1zm219-4c-1.5 2.1-4.5-.1-6 2-6.1 1.9-12.5.8-18.7 1-7.1.2-14.2 0-21.3 0v-1c1.7-4.1 5.7-1.4 8.3-2.9.6-.1 1.2-.1 1.8-.1H572c1.8 0 3.7-.5 5.2 1z"/><path class="st28" d="M381.2 34.2h112c-.9 3.3-3.7 2.3-5.8 2.3-10.2.2-20.3.1-30.5.1-23.2 0-46.3 0-69.5-.1-2.2 0-5 .9-6.2-2.3z"/><path class="st18" d="M577.2 36.2h-37c.2-2.5 2.1-1.2 3.3-1.4 1.9-.4 3.9.5 5.7-.6 5.8 0 11.6-.1 17.4 0 15.6.2 31-3.4 46.6-2-.9 1.6-3.1.4-4 2-8.7 1.6-17.5.8-26.2 1-1.9.1-3.8.6-5.8 1z"/><path class="st18" d="M549.2 34.2c-2.6 2.5-6.4-.5-9 2h-1c-4.6.7-9.2 1-13.8 1H351.1c-4.6 0-9.3-.2-13.8-1h-1c-3.5-2.1-7.4-.5-11-1v-1h56c1.5 1.6 3.4 1 5.2 1h101.7c1.7 0 3.7.7 5.2-1h55.8z"/><path class="st19" d="M407.2 16.2h62c-1.1 1.4-2.7 1-4.2 1h-53.7c-1.4 0-2.9.4-4.1-1z"/><path class="st18" d="M337.2 36.2h202c-2.2 2.4-5.8-.4-8 2h-180c-4.7 0-9.4-.6-14-2z"/></svg>